<?xml version="1.0" encoding="utf-8" standalone="no"?>
<!DOCTYPE svg PUBLIC "-//W3C//DTD SVG 1.1//EN"
  "http://www.w3.org/Graphics/SVG/1.1/DTD/svg11.dtd">
<!-- Created with matplotlib (https://matplotlib.org/) -->
<svg height="345.6pt" version="1.1" viewBox="0 0 460.8 345.6" width="460.8pt" xmlns="http://www.w3.org/2000/svg" xmlns:xlink="http://www.w3.org/1999/xlink">
 <metadata>
  <rdf:RDF xmlns:cc="http://creativecommons.org/ns#" xmlns:dc="http://purl.org/dc/elements/1.1/" xmlns:rdf="http://www.w3.org/1999/02/22-rdf-syntax-ns#">
   <cc:Work>
    <dc:type rdf:resource="http://purl.org/dc/dcmitype/StillImage"/>
    <dc:date>2021-03-06T01:55:04.454013</dc:date>
    <dc:format>image/svg+xml</dc:format>
    <dc:creator>
     <cc:Agent>
      <dc:title>Matplotlib v3.3.4, https://matplotlib.org/</dc:title>
     </cc:Agent>
    </dc:creator>
   </cc:Work>
  </rdf:RDF>
 </metadata>
 <defs>
  <style type="text/css">*{stroke-linecap:butt;stroke-linejoin:round;}</style>
 </defs>
 <g id="figure_1">
  <g id="patch_1">
   <path d="M 0 345.6 
L 460.8 345.6 
L 460.8 0 
L 0 0 
z
" style="fill:#ffffff;"/>
  </g>
  <g id="axes_1">
   <g id="patch_2">
    <path d="M 38.27 303.64 
L 440.505 303.64 
L 440.505 21.72 
L 38.27 21.72 
z
" style="fill:#ffffff;"/>
   </g>
   <g id="PathCollection_1">
    <defs>
     <path d="M 0 3 
C 0.795609 3 1.55874 2.683901 2.12132 2.12132 
C 2.683901 1.55874 3 0.795609 3 0 
C 3 -0.795609 2.683901 -1.55874 2.12132 -2.12132 
C 1.55874 -2.683901 0.795609 -3 0 -3 
C -0.795609 -3 -1.55874 -2.683901 -2.12132 -2.12132 
C -2.683901 -1.55874 -3 -0.795609 -3 0 
C -3 0.795609 -2.683901 1.55874 -2.12132 2.12132 
C -1.55874 2.683901 -0.795609 3 0 3 
z
" id="m731e963184" style="stroke:#000000;"/>
    </defs>
    <g clip-path="url(#pbd5c66e255)">
     <use style="stroke:#000000;" x="127.090728" xlink:href="#m731e963184" y="257.823184"/>
     <use style="stroke:#000000;" x="133.01211" xlink:href="#m731e963184" y="302.702917"/>
     <use style="stroke:#000000;" x="172.093231" xlink:href="#m731e963184" y="302.642849"/>
     <use style="stroke:#000000;" x="183.935994" xlink:href="#m731e963184" y="303.243256"/>
     <use style="stroke:#000000;" x="199.331587" xlink:href="#m731e963184" y="293.59967"/>
     <use style="stroke:#000000;" x="208.805798" xlink:href="#m731e963184" y="134.69583"/>
     <use style="stroke:#000000;" x="241.965537" xlink:href="#m731e963184" y="246.056936"/>
     <use style="stroke:#000000;" x="253.808301" xlink:href="#m731e963184" y="295.215481"/>
     <use style="stroke:#000000;" x="268.019617" xlink:href="#m731e963184" y="236.865329"/>
     <use style="stroke:#000000;" x="286.968039" xlink:href="#m731e963184" y="303.421753"/>
     <use style="stroke:#000000;" x="304.732185" xlink:href="#m731e963184" y="276.557973"/>
     <use style="stroke:#000000;" x="314.206396" xlink:href="#m731e963184" y="299.185924"/>
     <use style="stroke:#000000;" x="320.127778" xlink:href="#m731e963184" y="300.896969"/>
     <use style="stroke:#000000;" x="335.52337" xlink:href="#m731e963184" y="303.485861"/>
     <use style="stroke:#000000;" x="350.918963" xlink:href="#m731e963184" y="273.052935"/>
     <use style="stroke:#000000;" x="353.287516" xlink:href="#m731e963184" y="299.515411"/>
     <use style="stroke:#000000;" x="360.393174" xlink:href="#m731e963184" y="289.483129"/>
     <use style="stroke:#000000;" x="365.13028" xlink:href="#m731e963184" y="288.455934"/>
     <use style="stroke:#000000;" x="380.525873" xlink:href="#m731e963184" y="290.263036"/>
     <use style="stroke:#000000;" x="382.894426" xlink:href="#m731e963184" y="303.475701"/>
     <use style="stroke:#000000;" x="386.447255" xlink:href="#m731e963184" y="140.101323"/>
     <use style="stroke:#000000;" x="393.552913" xlink:href="#m731e963184" y="303.564413"/>
     <use style="stroke:#000000;" x="400.658571" xlink:href="#m731e963184" y="292.35185"/>
     <use style="stroke:#000000;" x="412.501335" xlink:href="#m731e963184" y="290.360014"/>
     <use style="stroke:#000000;" x="423.159822" xlink:href="#m731e963184" y="303.525541"/>
     <use style="stroke:#000000;" x="429.081204" xlink:href="#m731e963184" y="303.619665"/>
     <use style="stroke:#000000;" x="450.398179" xlink:href="#m731e963184" y="289.693752"/>
     <use style="stroke:#000000;" x="459.87239" xlink:href="#m731e963184" y="301.657536"/>
     <use style="stroke:#000000;" x="463.425219" xlink:href="#m731e963184" y="300.517477"/>
     <use style="stroke:#000000;" x="469.346601" xlink:href="#m731e963184" y="302.992294"/>
     <use style="stroke:#000000;" x="472.89943" xlink:href="#m731e963184" y="303.584145"/>
     <use style="stroke:#000000;" x="487.110747" xlink:href="#m731e963184" y="302.752726"/>
     <use style="stroke:#000000;" x="502.50634" xlink:href="#m731e963184" y="110.84664"/>
     <use style="stroke:#000000;" x="506.059169" xlink:href="#m731e963184" y="274.442595"/>
     <use style="stroke:#000000;" x="508.427721" xlink:href="#m731e963184" y="296.490422"/>
     <use style="stroke:#000000;" x="521.454762" xlink:href="#m731e963184" y="299.915054"/>
     <use style="stroke:#000000;" x="526.191867" xlink:href="#m731e963184" y="302.82025"/>
     <use style="stroke:#000000;" x="533.297525" xlink:href="#m731e963184" y="298.575715"/>
     <use style="stroke:#000000;" x="543.956013" xlink:href="#m731e963184" y="301.323715"/>
     <use style="stroke:#000000;" x="549.877395" xlink:href="#m731e963184" y="302.962516"/>
     <use style="stroke:#000000;" x="556.983053" xlink:href="#m731e963184" y="255.203332"/>
     <use style="stroke:#000000;" x="568.825817" xlink:href="#m731e963184" y="303.553751"/>
     <use style="stroke:#000000;" x="584.22141" xlink:href="#m731e963184" y="301.991452"/>
     <use style="stroke:#000000;" x="587.774239" xlink:href="#m731e963184" y="301.769638"/>
     <use style="stroke:#000000;" x="593.695621" xlink:href="#m731e963184" y="298.964973"/>
     <use style="stroke:#000000;" x="606.722661" xlink:href="#m731e963184" y="301.500086"/>
     <use style="stroke:#000000;" x="615.012595" xlink:href="#m731e963184" y="303.629712"/>
     <use style="stroke:#000000;" x="630.408188" xlink:href="#m731e963184" y="303.187311"/>
     <use style="stroke:#000000;" x="638.698123" xlink:href="#m731e963184" y="303.552955"/>
     <use style="stroke:#000000;" x="643.435228" xlink:href="#m731e963184" y="302.865556"/>
     <use style="stroke:#000000;" x="648.172334" xlink:href="#m731e963184" y="296.741172"/>
     <use style="stroke:#000000;" x="651.725163" xlink:href="#m731e963184" y="303.492345"/>
     <use style="stroke:#000000;" x="656.462268" xlink:href="#m731e963184" y="303.45792"/>
     <use style="stroke:#000000;" x="660.015098" xlink:href="#m731e963184" y="301.430061"/>
     <use style="stroke:#000000;" x="664.752203" xlink:href="#m731e963184" y="300.766695"/>
     <use style="stroke:#000000;" x="670.673585" xlink:href="#m731e963184" y="302.110793"/>
     <use style="stroke:#000000;" x="681.332072" xlink:href="#m731e963184" y="303.148918"/>
     <use style="stroke:#000000;" x="683.700625" xlink:href="#m731e963184" y="302.660956"/>
     <use style="stroke:#000000;" x="693.174836" xlink:href="#m731e963184" y="301.626454"/>
     <use style="stroke:#000000;" x="701.464771" xlink:href="#m731e963184" y="303.621412"/>
     <use style="stroke:#000000;" x="705.0176" xlink:href="#m731e963184" y="302.453363"/>
     <use style="stroke:#000000;" x="707.386153" xlink:href="#m731e963184" y="303.618743"/>
     <use style="stroke:#000000;" x="710.938982" xlink:href="#m731e963184" y="303.571919"/>
     <use style="stroke:#000000;" x="720.413193" xlink:href="#m731e963184" y="300.746033"/>
     <use style="stroke:#000000;" x="728.703127" xlink:href="#m731e963184" y="303.362361"/>
     <use style="stroke:#000000;" x="733.440233" xlink:href="#m731e963184" y="302.891449"/>
     <use style="stroke:#000000;" x="735.808786" xlink:href="#m731e963184" y="302.728531"/>
     <use style="stroke:#000000;" x="739.361615" xlink:href="#m731e963184" y="303.383444"/>
     <use style="stroke:#000000;" x="746.467273" xlink:href="#m731e963184" y="301.36939"/>
     <use style="stroke:#000000;" x="765.415695" xlink:href="#m731e963184" y="303.58124"/>
     <use style="stroke:#000000;" x="770.152801" xlink:href="#m731e963184" y="303.593555"/>
     <use style="stroke:#000000;" x="784.364117" xlink:href="#m731e963184" y="303.603939"/>
     <use style="stroke:#000000;" x="791.469775" xlink:href="#m731e963184" y="303.565667"/>
     <use style="stroke:#000000;" x="793.838328" xlink:href="#m731e963184" y="303.113792"/>
     <use style="stroke:#000000;" x="798.575434" xlink:href="#m731e963184" y="301.762239"/>
     <use style="stroke:#000000;" x="805.681092" xlink:href="#m731e963184" y="302.518518"/>
     <use style="stroke:#000000;" x="811.602474" xlink:href="#m731e963184" y="303.587629"/>
     <use style="stroke:#000000;" x="816.339579" xlink:href="#m731e963184" y="303.225197"/>
     <use style="stroke:#000000;" x="822.260961" xlink:href="#m731e963184" y="302.982981"/>
     <use style="stroke:#000000;" x="829.366619" xlink:href="#m731e963184" y="303.611636"/>
     <use style="stroke:#000000;" x="838.84083" xlink:href="#m731e963184" y="303.598651"/>
     <use style="stroke:#000000;" x="843.577936" xlink:href="#m731e963184" y="302.518558"/>
     <use style="stroke:#000000;" x="851.867871" xlink:href="#m731e963184" y="303.525316"/>
     <use style="stroke:#000000;" x="855.4207" xlink:href="#m731e963184" y="303.626208"/>
     <use style="stroke:#000000;" x="857.789252" xlink:href="#m731e963184" y="303.629845"/>
     <use style="stroke:#000000;" x="861.342082" xlink:href="#m731e963184" y="303.592537"/>
     <use style="stroke:#000000;" x="863.710634" xlink:href="#m731e963184" y="303.504421"/>
     <use style="stroke:#000000;" x="869.632016" xlink:href="#m731e963184" y="303.629064"/>
     <use style="stroke:#000000;" x="872.000569" xlink:href="#m731e963184" y="303.625324"/>
     <use style="stroke:#000000;" x="881.47478" xlink:href="#m731e963184" y="303.517525"/>
     <use style="stroke:#000000;" x="886.211886" xlink:href="#m731e963184" y="303.634919"/>
     <use style="stroke:#000000;" x="888.580438" xlink:href="#m731e963184" y="303.620462"/>
     <use style="stroke:#000000;" x="895.686097" xlink:href="#m731e963184" y="303.619608"/>
     <use style="stroke:#000000;" x="900.423202" xlink:href="#m731e963184" y="303.145054"/>
     <use style="stroke:#000000;" x="911.081689" xlink:href="#m731e963184" y="303.249772"/>
     <use style="stroke:#000000;" x="915.818795" xlink:href="#m731e963184" y="303.417707"/>
     <use style="stroke:#000000;" x="921.740177" xlink:href="#m731e963184" y="303.548518"/>
     <use style="stroke:#000000;" x="925.293006" xlink:href="#m731e963184" y="303.548275"/>
     <use style="stroke:#000000;" x="928.845835" xlink:href="#m731e963184" y="303.630435"/>
     <use style="stroke:#000000;" x="932.398664" xlink:href="#m731e963184" y="303.624242"/>
     <use style="stroke:#000000;" x="935.951493" xlink:href="#m731e963184" y="303.627476"/>
     <use style="stroke:#000000;" x="940.688599" xlink:href="#m731e963184" y="303.614063"/>
     <use style="stroke:#000000;" x="948.978533" xlink:href="#m731e963184" y="303.561327"/>
     <use style="stroke:#000000;" x="953.715639" xlink:href="#m731e963184" y="303.610911"/>
     <use style="stroke:#000000;" x="956.084192" xlink:href="#m731e963184" y="303.610628"/>
     <use style="stroke:#000000;" x="959.637021" xlink:href="#m731e963184" y="303.636732"/>
     <use style="stroke:#000000;" x="967.926955" xlink:href="#m731e963184" y="303.632352"/>
     <use style="stroke:#000000;" x="976.21689" xlink:href="#m731e963184" y="303.532075"/>
     <use style="stroke:#000000;" x="982.138272" xlink:href="#m731e963184" y="303.609304"/>
     <use style="stroke:#000000;" x="985.691101" xlink:href="#m731e963184" y="303.598797"/>
     <use style="stroke:#000000;" x="988.059654" xlink:href="#m731e963184" y="303.638723"/>
     <use style="stroke:#000000;" x="990.428207" xlink:href="#m731e963184" y="303.635695"/>
     <use style="stroke:#000000;" x="995.165312" xlink:href="#m731e963184" y="303.637532"/>
     <use style="stroke:#000000;" x="998.718141" xlink:href="#m731e963184" y="303.609161"/>
     <use style="stroke:#000000;" x="1001.086694" xlink:href="#m731e963184" y="303.63267"/>
     <use style="stroke:#000000;" x="1004.639523" xlink:href="#m731e963184" y="303.634453"/>
     <use style="stroke:#000000;" x="1008.192352" xlink:href="#m731e963184" y="303.59307"/>
     <use style="stroke:#000000;" x="1012.929458" xlink:href="#m731e963184" y="303.638157"/>
     <use style="stroke:#000000;" x="1018.85084" xlink:href="#m731e963184" y="303.634574"/>
     <use style="stroke:#000000;" x="1022.403669" xlink:href="#m731e963184" y="303.618144"/>
     <use style="stroke:#000000;" x="1029.509327" xlink:href="#m731e963184" y="303.593206"/>
     <use style="stroke:#000000;" x="1031.87788" xlink:href="#m731e963184" y="303.635543"/>
     <use style="stroke:#000000;" x="1037.799262" xlink:href="#m731e963184" y="303.634021"/>
     <use style="stroke:#000000;" x="1043.720644" xlink:href="#m731e963184" y="303.631889"/>
     <use style="stroke:#000000;" x="1047.273473" xlink:href="#m731e963184" y="303.633648"/>
     <use style="stroke:#000000;" x="1052.010578" xlink:href="#m731e963184" y="303.639727"/>
     <use style="stroke:#000000;" x="1055.563407" xlink:href="#m731e963184" y="303.639411"/>
     <use style="stroke:#000000;" x="1061.484789" xlink:href="#m731e963184" y="303.635502"/>
     <use style="stroke:#000000;" x="1063.853342" xlink:href="#m731e963184" y="303.637328"/>
     <use style="stroke:#000000;" x="1068.590447" xlink:href="#m731e963184" y="303.634099"/>
     <use style="stroke:#000000;" x="1075.696106" xlink:href="#m731e963184" y="303.619735"/>
     <use style="stroke:#000000;" x="1079.248935" xlink:href="#m731e963184" y="303.637627"/>
     <use style="stroke:#000000;" x="1081.617488" xlink:href="#m731e963184" y="303.624394"/>
     <use style="stroke:#000000;" x="1086.354593" xlink:href="#m731e963184" y="303.639572"/>
     <use style="stroke:#000000;" x="1091.091699" xlink:href="#m731e963184" y="303.634847"/>
     <use style="stroke:#000000;" x="1095.828804" xlink:href="#m731e963184" y="303.634287"/>
     <use style="stroke:#000000;" x="1106.487292" xlink:href="#m731e963184" y="303.635601"/>
     <use style="stroke:#000000;" x="1114.777226" xlink:href="#m731e963184" y="303.63709"/>
     <use style="stroke:#000000;" x="1119.514332" xlink:href="#m731e963184" y="303.635002"/>
     <use style="stroke:#000000;" x="1126.61999" xlink:href="#m731e963184" y="303.605862"/>
     <use style="stroke:#000000;" x="1132.541372" xlink:href="#m731e963184" y="303.618401"/>
     <use style="stroke:#000000;" x="1137.278477" xlink:href="#m731e963184" y="303.638683"/>
     <use style="stroke:#000000;" x="1142.015583" xlink:href="#m731e963184" y="303.636983"/>
     <use style="stroke:#000000;" x="1150.305517" xlink:href="#m731e963184" y="303.639507"/>
     <use style="stroke:#000000;" x="1153.858347" xlink:href="#m731e963184" y="303.63863"/>
     <use style="stroke:#000000;" x="1159.779728" xlink:href="#m731e963184" y="303.639695"/>
     <use style="stroke:#000000;" x="1177.543874" xlink:href="#m731e963184" y="303.637357"/>
     <use style="stroke:#000000;" x="1183.465256" xlink:href="#m731e963184" y="303.636356"/>
     <use style="stroke:#000000;" x="1198.860849" xlink:href="#m731e963184" y="303.639617"/>
     <use style="stroke:#000000;" x="1207.150784" xlink:href="#m731e963184" y="303.638989"/>
     <use style="stroke:#000000;" x="1214.256442" xlink:href="#m731e963184" y="303.639593"/>
     <use style="stroke:#000000;" x="1232.020587" xlink:href="#m731e963184" y="303.63957"/>
     <use style="stroke:#000000;" x="1240.310522" xlink:href="#m731e963184" y="303.639004"/>
     <use style="stroke:#000000;" x="1245.047628" xlink:href="#m731e963184" y="303.639578"/>
     <use style="stroke:#000000;" x="1253.337562" xlink:href="#m731e963184" y="303.639187"/>
     <use style="stroke:#000000;" x="1258.074668" xlink:href="#m731e963184" y="303.639465"/>
     <use style="stroke:#000000;" x="1269.917431" xlink:href="#m731e963184" y="303.639775"/>
     <use style="stroke:#000000;" x="1273.470261" xlink:href="#m731e963184" y="303.639782"/>
     <use style="stroke:#000000;" x="1275.838813" xlink:href="#m731e963184" y="303.639805"/>
     <use style="stroke:#000000;" x="1286.497301" xlink:href="#m731e963184" y="303.639791"/>
     <use style="stroke:#000000;" x="1290.05013" xlink:href="#m731e963184" y="303.639752"/>
     <use style="stroke:#000000;" x="1310.182828" xlink:href="#m731e963184" y="303.639828"/>
     <use style="stroke:#000000;" x="1313.735657" xlink:href="#m731e963184" y="303.639743"/>
    </g>
   </g>
   <g id="matplotlib.axis_1">
    <g id="xtick_1">
     <g id="line2d_1">
      <path clip-path="url(#pbd5c66e255)" d="M 38.27 303.64 
L 38.27 21.72 
" style="fill:none;stroke:#b0b0b0;stroke-linecap:square;stroke-width:0.8;"/>
     </g>
     <g id="line2d_2">
      <defs>
       <path d="M 0 0 
L 0 3.5 
" id="m3401254ce3" style="stroke:#000000;stroke-width:0.8;"/>
      </defs>
      <g>
       <use style="stroke:#000000;stroke-width:0.8;" x="38.27" xlink:href="#m3401254ce3" y="303.64"/>
      </g>
     </g>
     <g id="text_1">
      <!-- 0 -->
      <g transform="translate(35.08875 318.238437)scale(0.1 -0.1)">
       <defs>
        <path d="M 31.78125 66.40625 
Q 24.171875 66.40625 20.328125 58.90625 
Q 16.5 51.421875 16.5 36.375 
Q 16.5 21.390625 20.328125 13.890625 
Q 24.171875 6.390625 31.78125 6.390625 
Q 39.453125 6.390625 43.28125 13.890625 
Q 47.125 21.390625 47.125 36.375 
Q 47.125 51.421875 43.28125 58.90625 
Q 39.453125 66.40625 31.78125 66.40625 
z
M 31.78125 74.21875 
Q 44.046875 74.21875 50.515625 64.515625 
Q 56.984375 54.828125 56.984375 36.375 
Q 56.984375 17.96875 50.515625 8.265625 
Q 44.046875 -1.421875 31.78125 -1.421875 
Q 19.53125 -1.421875 13.0625 8.265625 
Q 6.59375 17.96875 6.59375 36.375 
Q 6.59375 54.828125 13.0625 64.515625 
Q 19.53125 74.21875 31.78125 74.21875 
z
" id="DejaVuSans-48"/>
       </defs>
       <use xlink:href="#DejaVuSans-48"/>
      </g>
     </g>
    </g>
    <g id="xtick_2">
     <g id="line2d_3">
      <path clip-path="url(#pbd5c66e255)" d="M 88.549375 303.64 
L 88.549375 21.72 
" style="fill:none;stroke:#b0b0b0;stroke-linecap:square;stroke-width:0.8;"/>
     </g>
     <g id="line2d_4">
      <g>
       <use style="stroke:#000000;stroke-width:0.8;" x="88.549375" xlink:href="#m3401254ce3" y="303.64"/>
      </g>
     </g>
     <g id="text_2">
      <!-- 100 -->
      <g transform="translate(79.005625 318.238437)scale(0.1 -0.1)">
       <defs>
        <path d="M 12.40625 8.296875 
L 28.515625 8.296875 
L 28.515625 63.921875 
L 10.984375 60.40625 
L 10.984375 69.390625 
L 28.421875 72.90625 
L 38.28125 72.90625 
L 38.28125 8.296875 
L 54.390625 8.296875 
L 54.390625 0 
L 12.40625 0 
z
" id="DejaVuSans-49"/>
       </defs>
       <use xlink:href="#DejaVuSans-49"/>
       <use x="63.623047" xlink:href="#DejaVuSans-48"/>
       <use x="127.246094" xlink:href="#DejaVuSans-48"/>
      </g>
     </g>
    </g>
    <g id="xtick_3">
     <g id="line2d_5">
      <path clip-path="url(#pbd5c66e255)" d="M 138.82875 303.64 
L 138.82875 21.72 
" style="fill:none;stroke:#b0b0b0;stroke-linecap:square;stroke-width:0.8;"/>
     </g>
     <g id="line2d_6">
      <g>
       <use style="stroke:#000000;stroke-width:0.8;" x="138.82875" xlink:href="#m3401254ce3" y="303.64"/>
      </g>
     </g>
     <g id="text_3">
      <!-- 200 -->
      <g transform="translate(129.285 318.238437)scale(0.1 -0.1)">
       <defs>
        <path d="M 19.1875 8.296875 
L 53.609375 8.296875 
L 53.609375 0 
L 7.328125 0 
L 7.328125 8.296875 
Q 12.9375 14.109375 22.625 23.890625 
Q 32.328125 33.6875 34.8125 36.53125 
Q 39.546875 41.84375 41.421875 45.53125 
Q 43.3125 49.21875 43.3125 52.78125 
Q 43.3125 58.59375 39.234375 62.25 
Q 35.15625 65.921875 28.609375 65.921875 
Q 23.96875 65.921875 18.8125 64.3125 
Q 13.671875 62.703125 7.8125 59.421875 
L 7.8125 69.390625 
Q 13.765625 71.78125 18.9375 73 
Q 24.125 74.21875 28.421875 74.21875 
Q 39.75 74.21875 46.484375 68.546875 
Q 53.21875 62.890625 53.21875 53.421875 
Q 53.21875 48.921875 51.53125 44.890625 
Q 49.859375 40.875 45.40625 35.40625 
Q 44.1875 33.984375 37.640625 27.21875 
Q 31.109375 20.453125 19.1875 8.296875 
z
" id="DejaVuSans-50"/>
       </defs>
       <use xlink:href="#DejaVuSans-50"/>
       <use x="63.623047" xlink:href="#DejaVuSans-48"/>
       <use x="127.246094" xlink:href="#DejaVuSans-48"/>
      </g>
     </g>
    </g>
    <g id="xtick_4">
     <g id="line2d_7">
      <path clip-path="url(#pbd5c66e255)" d="M 189.108125 303.64 
L 189.108125 21.72 
" style="fill:none;stroke:#b0b0b0;stroke-linecap:square;stroke-width:0.8;"/>
     </g>
     <g id="line2d_8">
      <g>
       <use style="stroke:#000000;stroke-width:0.8;" x="189.108125" xlink:href="#m3401254ce3" y="303.64"/>
      </g>
     </g>
     <g id="text_4">
      <!-- 300 -->
      <g transform="translate(179.564375 318.238437)scale(0.1 -0.1)">
       <defs>
        <path d="M 40.578125 39.3125 
Q 47.65625 37.796875 51.625 33 
Q 55.609375 28.21875 55.609375 21.1875 
Q 55.609375 10.40625 48.1875 4.484375 
Q 40.765625 -1.421875 27.09375 -1.421875 
Q 22.515625 -1.421875 17.65625 -0.515625 
Q 12.796875 0.390625 7.625 2.203125 
L 7.625 11.71875 
Q 11.71875 9.328125 16.59375 8.109375 
Q 21.484375 6.890625 26.8125 6.890625 
Q 36.078125 6.890625 40.9375 10.546875 
Q 45.796875 14.203125 45.796875 21.1875 
Q 45.796875 27.640625 41.28125 31.265625 
Q 36.765625 34.90625 28.71875 34.90625 
L 20.21875 34.90625 
L 20.21875 43.015625 
L 29.109375 43.015625 
Q 36.375 43.015625 40.234375 45.921875 
Q 44.09375 48.828125 44.09375 54.296875 
Q 44.09375 59.90625 40.109375 62.90625 
Q 36.140625 65.921875 28.71875 65.921875 
Q 24.65625 65.921875 20.015625 65.03125 
Q 15.375 64.15625 9.8125 62.3125 
L 9.8125 71.09375 
Q 15.4375 72.65625 20.34375 73.4375 
Q 25.25 74.21875 29.59375 74.21875 
Q 40.828125 74.21875 47.359375 69.109375 
Q 53.90625 64.015625 53.90625 55.328125 
Q 53.90625 49.265625 50.4375 45.09375 
Q 46.96875 40.921875 40.578125 39.3125 
z
" id="DejaVuSans-51"/>
       </defs>
       <use xlink:href="#DejaVuSans-51"/>
       <use x="63.623047" xlink:href="#DejaVuSans-48"/>
       <use x="127.246094" xlink:href="#DejaVuSans-48"/>
      </g>
     </g>
    </g>
    <g id="xtick_5">
     <g id="line2d_9">
      <path clip-path="url(#pbd5c66e255)" d="M 239.3875 303.64 
L 239.3875 21.72 
" style="fill:none;stroke:#b0b0b0;stroke-linecap:square;stroke-width:0.8;"/>
     </g>
     <g id="line2d_10">
      <g>
       <use style="stroke:#000000;stroke-width:0.8;" x="239.3875" xlink:href="#m3401254ce3" y="303.64"/>
      </g>
     </g>
     <g id="text_5">
      <!-- 400 -->
      <g transform="translate(229.84375 318.238437)scale(0.1 -0.1)">
       <defs>
        <path d="M 37.796875 64.3125 
L 12.890625 25.390625 
L 37.796875 25.390625 
z
M 35.203125 72.90625 
L 47.609375 72.90625 
L 47.609375 25.390625 
L 58.015625 25.390625 
L 58.015625 17.1875 
L 47.609375 17.1875 
L 47.609375 0 
L 37.796875 0 
L 37.796875 17.1875 
L 4.890625 17.1875 
L 4.890625 26.703125 
z
" id="DejaVuSans-52"/>
       </defs>
       <use xlink:href="#DejaVuSans-52"/>
       <use x="63.623047" xlink:href="#DejaVuSans-48"/>
       <use x="127.246094" xlink:href="#DejaVuSans-48"/>
      </g>
     </g>
    </g>
    <g id="xtick_6">
     <g id="line2d_11">
      <path clip-path="url(#pbd5c66e255)" d="M 289.666875 303.64 
L 289.666875 21.72 
" style="fill:none;stroke:#b0b0b0;stroke-linecap:square;stroke-width:0.8;"/>
     </g>
     <g id="line2d_12">
      <g>
       <use style="stroke:#000000;stroke-width:0.8;" x="289.666875" xlink:href="#m3401254ce3" y="303.64"/>
      </g>
     </g>
     <g id="text_6">
      <!-- 500 -->
      <g transform="translate(280.123125 318.238437)scale(0.1 -0.1)">
       <defs>
        <path d="M 10.796875 72.90625 
L 49.515625 72.90625 
L 49.515625 64.59375 
L 19.828125 64.59375 
L 19.828125 46.734375 
Q 21.96875 47.46875 24.109375 47.828125 
Q 26.265625 48.1875 28.421875 48.1875 
Q 40.625 48.1875 47.75 41.5 
Q 54.890625 34.8125 54.890625 23.390625 
Q 54.890625 11.625 47.5625 5.09375 
Q 40.234375 -1.421875 26.90625 -1.421875 
Q 22.3125 -1.421875 17.546875 -0.640625 
Q 12.796875 0.140625 7.71875 1.703125 
L 7.71875 11.625 
Q 12.109375 9.234375 16.796875 8.0625 
Q 21.484375 6.890625 26.703125 6.890625 
Q 35.15625 6.890625 40.078125 11.328125 
Q 45.015625 15.765625 45.015625 23.390625 
Q 45.015625 31 40.078125 35.4375 
Q 35.15625 39.890625 26.703125 39.890625 
Q 22.75 39.890625 18.8125 39.015625 
Q 14.890625 38.140625 10.796875 36.28125 
z
" id="DejaVuSans-53"/>
       </defs>
       <use xlink:href="#DejaVuSans-53"/>
       <use x="63.623047" xlink:href="#DejaVuSans-48"/>
       <use x="127.246094" xlink:href="#DejaVuSans-48"/>
      </g>
     </g>
    </g>
    <g id="xtick_7">
     <g id="line2d_13">
      <path clip-path="url(#pbd5c66e255)" d="M 339.94625 303.64 
L 339.94625 21.72 
" style="fill:none;stroke:#b0b0b0;stroke-linecap:square;stroke-width:0.8;"/>
     </g>
     <g id="line2d_14">
      <g>
       <use style="stroke:#000000;stroke-width:0.8;" x="339.94625" xlink:href="#m3401254ce3" y="303.64"/>
      </g>
     </g>
     <g id="text_7">
      <!-- 600 -->
      <g transform="translate(330.4025 318.238437)scale(0.1 -0.1)">
       <defs>
        <path d="M 33.015625 40.375 
Q 26.375 40.375 22.484375 35.828125 
Q 18.609375 31.296875 18.609375 23.390625 
Q 18.609375 15.53125 22.484375 10.953125 
Q 26.375 6.390625 33.015625 6.390625 
Q 39.65625 6.390625 43.53125 10.953125 
Q 47.40625 15.53125 47.40625 23.390625 
Q 47.40625 31.296875 43.53125 35.828125 
Q 39.65625 40.375 33.015625 40.375 
z
M 52.59375 71.296875 
L 52.59375 62.3125 
Q 48.875 64.0625 45.09375 64.984375 
Q 41.3125 65.921875 37.59375 65.921875 
Q 27.828125 65.921875 22.671875 59.328125 
Q 17.53125 52.734375 16.796875 39.40625 
Q 19.671875 43.65625 24.015625 45.921875 
Q 28.375 48.1875 33.59375 48.1875 
Q 44.578125 48.1875 50.953125 41.515625 
Q 57.328125 34.859375 57.328125 23.390625 
Q 57.328125 12.15625 50.6875 5.359375 
Q 44.046875 -1.421875 33.015625 -1.421875 
Q 20.359375 -1.421875 13.671875 8.265625 
Q 6.984375 17.96875 6.984375 36.375 
Q 6.984375 53.65625 15.1875 63.9375 
Q 23.390625 74.21875 37.203125 74.21875 
Q 40.921875 74.21875 44.703125 73.484375 
Q 48.484375 72.75 52.59375 71.296875 
z
" id="DejaVuSans-54"/>
       </defs>
       <use xlink:href="#DejaVuSans-54"/>
       <use x="63.623047" xlink:href="#DejaVuSans-48"/>
       <use x="127.246094" xlink:href="#DejaVuSans-48"/>
      </g>
     </g>
    </g>
    <g id="xtick_8">
     <g id="line2d_15">
      <path clip-path="url(#pbd5c66e255)" d="M 390.225625 303.64 
L 390.225625 21.72 
" style="fill:none;stroke:#b0b0b0;stroke-linecap:square;stroke-width:0.8;"/>
     </g>
     <g id="line2d_16">
      <g>
       <use style="stroke:#000000;stroke-width:0.8;" x="390.225625" xlink:href="#m3401254ce3" y="303.64"/>
      </g>
     </g>
     <g id="text_8">
      <!-- 700 -->
      <g transform="translate(380.681875 318.238437)scale(0.1 -0.1)">
       <defs>
        <path d="M 8.203125 72.90625 
L 55.078125 72.90625 
L 55.078125 68.703125 
L 28.609375 0 
L 18.3125 0 
L 43.21875 64.59375 
L 8.203125 64.59375 
z
" id="DejaVuSans-55"/>
       </defs>
       <use xlink:href="#DejaVuSans-55"/>
       <use x="63.623047" xlink:href="#DejaVuSans-48"/>
       <use x="127.246094" xlink:href="#DejaVuSans-48"/>
      </g>
     </g>
    </g>
    <g id="xtick_9">
     <g id="line2d_17">
      <path clip-path="url(#pbd5c66e255)" d="M 440.505 303.64 
L 440.505 21.72 
" style="fill:none;stroke:#b0b0b0;stroke-linecap:square;stroke-width:0.8;"/>
     </g>
     <g id="line2d_18">
      <g>
       <use style="stroke:#000000;stroke-width:0.8;" x="440.505" xlink:href="#m3401254ce3" y="303.64"/>
      </g>
     </g>
     <g id="text_9">
      <!-- 800 -->
      <g transform="translate(430.96125 318.238437)scale(0.1 -0.1)">
       <defs>
        <path d="M 31.78125 34.625 
Q 24.75 34.625 20.71875 30.859375 
Q 16.703125 27.09375 16.703125 20.515625 
Q 16.703125 13.921875 20.71875 10.15625 
Q 24.75 6.390625 31.78125 6.390625 
Q 38.8125 6.390625 42.859375 10.171875 
Q 46.921875 13.96875 46.921875 20.515625 
Q 46.921875 27.09375 42.890625 30.859375 
Q 38.875 34.625 31.78125 34.625 
z
M 21.921875 38.8125 
Q 15.578125 40.375 12.03125 44.71875 
Q 8.5 49.078125 8.5 55.328125 
Q 8.5 64.0625 14.71875 69.140625 
Q 20.953125 74.21875 31.78125 74.21875 
Q 42.671875 74.21875 48.875 69.140625 
Q 55.078125 64.0625 55.078125 55.328125 
Q 55.078125 49.078125 51.53125 44.71875 
Q 48 40.375 41.703125 38.8125 
Q 48.828125 37.15625 52.796875 32.3125 
Q 56.78125 27.484375 56.78125 20.515625 
Q 56.78125 9.90625 50.3125 4.234375 
Q 43.84375 -1.421875 31.78125 -1.421875 
Q 19.734375 -1.421875 13.25 4.234375 
Q 6.78125 9.90625 6.78125 20.515625 
Q 6.78125 27.484375 10.78125 32.3125 
Q 14.796875 37.15625 21.921875 38.8125 
z
M 18.3125 54.390625 
Q 18.3125 48.734375 21.84375 45.5625 
Q 25.390625 42.390625 31.78125 42.390625 
Q 38.140625 42.390625 41.71875 45.5625 
Q 45.3125 48.734375 45.3125 54.390625 
Q 45.3125 60.0625 41.71875 63.234375 
Q 38.140625 66.40625 31.78125 66.40625 
Q 25.390625 66.40625 21.84375 63.234375 
Q 18.3125 60.0625 18.3125 54.390625 
z
" id="DejaVuSans-56"/>
       </defs>
       <use xlink:href="#DejaVuSans-56"/>
       <use x="63.623047" xlink:href="#DejaVuSans-48"/>
       <use x="127.246094" xlink:href="#DejaVuSans-48"/>
      </g>
     </g>
    </g>
    <g id="text_10">
     <!-- Frequency [THz] -->
     <g transform="translate(198.628906 331.916562)scale(0.1 -0.1)">
      <defs>
       <path d="M 9.8125 72.90625 
L 51.703125 72.90625 
L 51.703125 64.59375 
L 19.671875 64.59375 
L 19.671875 43.109375 
L 48.578125 43.109375 
L 48.578125 34.8125 
L 19.671875 34.8125 
L 19.671875 0 
L 9.8125 0 
z
" id="DejaVuSans-70"/>
       <path d="M 41.109375 46.296875 
Q 39.59375 47.171875 37.8125 47.578125 
Q 36.03125 48 33.890625 48 
Q 26.265625 48 22.1875 43.046875 
Q 18.109375 38.09375 18.109375 28.8125 
L 18.109375 0 
L 9.078125 0 
L 9.078125 54.6875 
L 18.109375 54.6875 
L 18.109375 46.1875 
Q 20.953125 51.171875 25.484375 53.578125 
Q 30.03125 56 36.53125 56 
Q 37.453125 56 38.578125 55.875 
Q 39.703125 55.765625 41.0625 55.515625 
z
" id="DejaVuSans-114"/>
       <path d="M 56.203125 29.59375 
L 56.203125 25.203125 
L 14.890625 25.203125 
Q 15.484375 15.921875 20.484375 11.0625 
Q 25.484375 6.203125 34.421875 6.203125 
Q 39.59375 6.203125 44.453125 7.46875 
Q 49.3125 8.734375 54.109375 11.28125 
L 54.109375 2.78125 
Q 49.265625 0.734375 44.1875 -0.34375 
Q 39.109375 -1.421875 33.890625 -1.421875 
Q 20.796875 -1.421875 13.15625 6.1875 
Q 5.515625 13.8125 5.515625 26.8125 
Q 5.515625 40.234375 12.765625 48.109375 
Q 20.015625 56 32.328125 56 
Q 43.359375 56 49.78125 48.890625 
Q 56.203125 41.796875 56.203125 29.59375 
z
M 47.21875 32.234375 
Q 47.125 39.59375 43.09375 43.984375 
Q 39.0625 48.390625 32.421875 48.390625 
Q 24.90625 48.390625 20.390625 44.140625 
Q 15.875 39.890625 15.1875 32.171875 
z
" id="DejaVuSans-101"/>
       <path d="M 14.796875 27.296875 
Q 14.796875 17.390625 18.875 11.75 
Q 22.953125 6.109375 30.078125 6.109375 
Q 37.203125 6.109375 41.296875 11.75 
Q 45.40625 17.390625 45.40625 27.296875 
Q 45.40625 37.203125 41.296875 42.84375 
Q 37.203125 48.484375 30.078125 48.484375 
Q 22.953125 48.484375 18.875 42.84375 
Q 14.796875 37.203125 14.796875 27.296875 
z
M 45.40625 8.203125 
Q 42.578125 3.328125 38.25 0.953125 
Q 33.9375 -1.421875 27.875 -1.421875 
Q 17.96875 -1.421875 11.734375 6.484375 
Q 5.515625 14.40625 5.515625 27.296875 
Q 5.515625 40.1875 11.734375 48.09375 
Q 17.96875 56 27.875 56 
Q 33.9375 56 38.25 53.625 
Q 42.578125 51.265625 45.40625 46.390625 
L 45.40625 54.6875 
L 54.390625 54.6875 
L 54.390625 -20.796875 
L 45.40625 -20.796875 
z
" id="DejaVuSans-113"/>
       <path d="M 8.5 21.578125 
L 8.5 54.6875 
L 17.484375 54.6875 
L 17.484375 21.921875 
Q 17.484375 14.15625 20.5 10.265625 
Q 23.53125 6.390625 29.59375 6.390625 
Q 36.859375 6.390625 41.078125 11.03125 
Q 45.3125 15.671875 45.3125 23.6875 
L 45.3125 54.6875 
L 54.296875 54.6875 
L 54.296875 0 
L 45.3125 0 
L 45.3125 8.40625 
Q 42.046875 3.421875 37.71875 1 
Q 33.40625 -1.421875 27.6875 -1.421875 
Q 18.265625 -1.421875 13.375 4.4375 
Q 8.5 10.296875 8.5 21.578125 
z
M 31.109375 56 
z
" id="DejaVuSans-117"/>
       <path d="M 54.890625 33.015625 
L 54.890625 0 
L 45.90625 0 
L 45.90625 32.71875 
Q 45.90625 40.484375 42.875 44.328125 
Q 39.84375 48.1875 33.796875 48.1875 
Q 26.515625 48.1875 22.3125 43.546875 
Q 18.109375 38.921875 18.109375 30.90625 
L 18.109375 0 
L 9.078125 0 
L 9.078125 54.6875 
L 18.109375 54.6875 
L 18.109375 46.1875 
Q 21.34375 51.125 25.703125 53.5625 
Q 30.078125 56 35.796875 56 
Q 45.21875 56 50.046875 50.171875 
Q 54.890625 44.34375 54.890625 33.015625 
z
" id="DejaVuSans-110"/>
       <path d="M 48.78125 52.59375 
L 48.78125 44.1875 
Q 44.96875 46.296875 41.140625 47.34375 
Q 37.3125 48.390625 33.40625 48.390625 
Q 24.65625 48.390625 19.8125 42.84375 
Q 14.984375 37.3125 14.984375 27.296875 
Q 14.984375 17.28125 19.8125 11.734375 
Q 24.65625 6.203125 33.40625 6.203125 
Q 37.3125 6.203125 41.140625 7.25 
Q 44.96875 8.296875 48.78125 10.40625 
L 48.78125 2.09375 
Q 45.015625 0.34375 40.984375 -0.53125 
Q 36.96875 -1.421875 32.421875 -1.421875 
Q 20.0625 -1.421875 12.78125 6.34375 
Q 5.515625 14.109375 5.515625 27.296875 
Q 5.515625 40.671875 12.859375 48.328125 
Q 20.21875 56 33.015625 56 
Q 37.15625 56 41.109375 55.140625 
Q 45.0625 54.296875 48.78125 52.59375 
z
" id="DejaVuSans-99"/>
       <path d="M 32.171875 -5.078125 
Q 28.375 -14.84375 24.75 -17.8125 
Q 21.140625 -20.796875 15.09375 -20.796875 
L 7.90625 -20.796875 
L 7.90625 -13.28125 
L 13.1875 -13.28125 
Q 16.890625 -13.28125 18.9375 -11.515625 
Q 21 -9.765625 23.484375 -3.21875 
L 25.09375 0.875 
L 2.984375 54.6875 
L 12.5 54.6875 
L 29.59375 11.921875 
L 46.6875 54.6875 
L 56.203125 54.6875 
z
" id="DejaVuSans-121"/>
       <path id="DejaVuSans-32"/>
       <path d="M 8.59375 75.984375 
L 29.296875 75.984375 
L 29.296875 69 
L 17.578125 69 
L 17.578125 -6.203125 
L 29.296875 -6.203125 
L 29.296875 -13.1875 
L 8.59375 -13.1875 
z
" id="DejaVuSans-91"/>
       <path d="M -0.296875 72.90625 
L 61.375 72.90625 
L 61.375 64.59375 
L 35.5 64.59375 
L 35.5 0 
L 25.59375 0 
L 25.59375 64.59375 
L -0.296875 64.59375 
z
" id="DejaVuSans-84"/>
       <path d="M 9.8125 72.90625 
L 19.671875 72.90625 
L 19.671875 43.015625 
L 55.515625 43.015625 
L 55.515625 72.90625 
L 65.375 72.90625 
L 65.375 0 
L 55.515625 0 
L 55.515625 34.71875 
L 19.671875 34.71875 
L 19.671875 0 
L 9.8125 0 
z
" id="DejaVuSans-72"/>
       <path d="M 5.515625 54.6875 
L 48.1875 54.6875 
L 48.1875 46.484375 
L 14.40625 7.171875 
L 48.1875 7.171875 
L 48.1875 0 
L 4.296875 0 
L 4.296875 8.203125 
L 38.09375 47.515625 
L 5.515625 47.515625 
z
" id="DejaVuSans-122"/>
       <path d="M 30.421875 75.984375 
L 30.421875 -13.1875 
L 9.71875 -13.1875 
L 9.71875 -6.203125 
L 21.390625 -6.203125 
L 21.390625 69 
L 9.71875 69 
L 9.71875 75.984375 
z
" id="DejaVuSans-93"/>
      </defs>
      <use xlink:href="#DejaVuSans-70"/>
      <use x="50.269531" xlink:href="#DejaVuSans-114"/>
      <use x="89.132812" xlink:href="#DejaVuSans-101"/>
      <use x="150.65625" xlink:href="#DejaVuSans-113"/>
      <use x="214.132812" xlink:href="#DejaVuSans-117"/>
      <use x="277.511719" xlink:href="#DejaVuSans-101"/>
      <use x="339.035156" xlink:href="#DejaVuSans-110"/>
      <use x="402.414062" xlink:href="#DejaVuSans-99"/>
      <use x="457.394531" xlink:href="#DejaVuSans-121"/>
      <use x="516.574219" xlink:href="#DejaVuSans-32"/>
      <use x="548.361328" xlink:href="#DejaVuSans-91"/>
      <use x="587.375" xlink:href="#DejaVuSans-84"/>
      <use x="648.458984" xlink:href="#DejaVuSans-72"/>
      <use x="723.654297" xlink:href="#DejaVuSans-122"/>
      <use x="776.144531" xlink:href="#DejaVuSans-93"/>
     </g>
    </g>
   </g>
   <g id="matplotlib.axis_2">
    <g id="ytick_1">
     <g id="line2d_19">
      <path clip-path="url(#pbd5c66e255)" d="M 38.27 303.64 
L 440.505 303.64 
" style="fill:none;stroke:#b0b0b0;stroke-linecap:square;stroke-width:0.8;"/>
     </g>
     <g id="line2d_20">
      <defs>
       <path d="M 0 0 
L -3.5 0 
" id="m713025f097" style="stroke:#000000;stroke-width:0.8;"/>
      </defs>
      <g>
       <use style="stroke:#000000;stroke-width:0.8;" x="38.27" xlink:href="#m713025f097" y="303.64"/>
      </g>
     </g>
     <g id="text_11">
      <!-- 0 -->
      <g transform="translate(24.9075 307.439219)scale(0.1 -0.1)">
       <use xlink:href="#DejaVuSans-48"/>
      </g>
     </g>
    </g>
    <g id="ytick_2">
     <g id="line2d_21">
      <path clip-path="url(#pbd5c66e255)" d="M 38.27 256.653333 
L 440.505 256.653333 
" style="fill:none;stroke:#b0b0b0;stroke-linecap:square;stroke-width:0.8;"/>
     </g>
     <g id="line2d_22">
      <g>
       <use style="stroke:#000000;stroke-width:0.8;" x="38.27" xlink:href="#m713025f097" y="256.653333"/>
      </g>
     </g>
     <g id="text_12">
      <!-- 1 -->
      <g transform="translate(24.9075 260.452552)scale(0.1 -0.1)">
       <use xlink:href="#DejaVuSans-49"/>
      </g>
     </g>
    </g>
    <g id="ytick_3">
     <g id="line2d_23">
      <path clip-path="url(#pbd5c66e255)" d="M 38.27 209.666667 
L 440.505 209.666667 
" style="fill:none;stroke:#b0b0b0;stroke-linecap:square;stroke-width:0.8;"/>
     </g>
     <g id="line2d_24">
      <g>
       <use style="stroke:#000000;stroke-width:0.8;" x="38.27" xlink:href="#m713025f097" y="209.666667"/>
      </g>
     </g>
     <g id="text_13">
      <!-- 2 -->
      <g transform="translate(24.9075 213.465885)scale(0.1 -0.1)">
       <use xlink:href="#DejaVuSans-50"/>
      </g>
     </g>
    </g>
    <g id="ytick_4">
     <g id="line2d_25">
      <path clip-path="url(#pbd5c66e255)" d="M 38.27 162.68 
L 440.505 162.68 
" style="fill:none;stroke:#b0b0b0;stroke-linecap:square;stroke-width:0.8;"/>
     </g>
     <g id="line2d_26">
      <g>
       <use style="stroke:#000000;stroke-width:0.8;" x="38.27" xlink:href="#m713025f097" y="162.68"/>
      </g>
     </g>
     <g id="text_14">
      <!-- 3 -->
      <g transform="translate(24.9075 166.479219)scale(0.1 -0.1)">
       <use xlink:href="#DejaVuSans-51"/>
      </g>
     </g>
    </g>
    <g id="ytick_5">
     <g id="line2d_27">
      <path clip-path="url(#pbd5c66e255)" d="M 38.27 115.693333 
L 440.505 115.693333 
" style="fill:none;stroke:#b0b0b0;stroke-linecap:square;stroke-width:0.8;"/>
     </g>
     <g id="line2d_28">
      <g>
       <use style="stroke:#000000;stroke-width:0.8;" x="38.27" xlink:href="#m713025f097" y="115.693333"/>
      </g>
     </g>
     <g id="text_15">
      <!-- 4 -->
      <g transform="translate(24.9075 119.492552)scale(0.1 -0.1)">
       <use xlink:href="#DejaVuSans-52"/>
      </g>
     </g>
    </g>
    <g id="ytick_6">
     <g id="line2d_29">
      <path clip-path="url(#pbd5c66e255)" d="M 38.27 68.706667 
L 440.505 68.706667 
" style="fill:none;stroke:#b0b0b0;stroke-linecap:square;stroke-width:0.8;"/>
     </g>
     <g id="line2d_30">
      <g>
       <use style="stroke:#000000;stroke-width:0.8;" x="38.27" xlink:href="#m713025f097" y="68.706667"/>
      </g>
     </g>
     <g id="text_16">
      <!-- 5 -->
      <g transform="translate(24.9075 72.505885)scale(0.1 -0.1)">
       <use xlink:href="#DejaVuSans-53"/>
      </g>
     </g>
    </g>
    <g id="ytick_7">
     <g id="line2d_31">
      <path clip-path="url(#pbd5c66e255)" d="M 38.27 21.72 
L 440.505 21.72 
" style="fill:none;stroke:#b0b0b0;stroke-linecap:square;stroke-width:0.8;"/>
     </g>
     <g id="line2d_32">
      <g>
       <use style="stroke:#000000;stroke-width:0.8;" x="38.27" xlink:href="#m713025f097" y="21.72"/>
      </g>
     </g>
     <g id="text_17">
      <!-- 6 -->
      <g transform="translate(24.9075 25.519219)scale(0.1 -0.1)">
       <use xlink:href="#DejaVuSans-54"/>
      </g>
     </g>
    </g>
    <g id="text_18">
     <!-- PSD [W] -->
     <g transform="translate(18.827813 183.153437)rotate(-90)scale(0.1 -0.1)">
      <defs>
       <path d="M 19.671875 64.796875 
L 19.671875 37.40625 
L 32.078125 37.40625 
Q 38.96875 37.40625 42.71875 40.96875 
Q 46.484375 44.53125 46.484375 51.125 
Q 46.484375 57.671875 42.71875 61.234375 
Q 38.96875 64.796875 32.078125 64.796875 
z
M 9.8125 72.90625 
L 32.078125 72.90625 
Q 44.34375 72.90625 50.609375 67.359375 
Q 56.890625 61.8125 56.890625 51.125 
Q 56.890625 40.328125 50.609375 34.8125 
Q 44.34375 29.296875 32.078125 29.296875 
L 19.671875 29.296875 
L 19.671875 0 
L 9.8125 0 
z
" id="DejaVuSans-80"/>
       <path d="M 53.515625 70.515625 
L 53.515625 60.890625 
Q 47.90625 63.578125 42.921875 64.890625 
Q 37.9375 66.21875 33.296875 66.21875 
Q 25.25 66.21875 20.875 63.09375 
Q 16.5 59.96875 16.5 54.203125 
Q 16.5 49.359375 19.40625 46.890625 
Q 22.3125 44.4375 30.421875 42.921875 
L 36.375 41.703125 
Q 47.40625 39.59375 52.65625 34.296875 
Q 57.90625 29 57.90625 20.125 
Q 57.90625 9.515625 50.796875 4.046875 
Q 43.703125 -1.421875 29.984375 -1.421875 
Q 24.8125 -1.421875 18.96875 -0.25 
Q 13.140625 0.921875 6.890625 3.21875 
L 6.890625 13.375 
Q 12.890625 10.015625 18.65625 8.296875 
Q 24.421875 6.59375 29.984375 6.59375 
Q 38.421875 6.59375 43.015625 9.90625 
Q 47.609375 13.234375 47.609375 19.390625 
Q 47.609375 24.75 44.3125 27.78125 
Q 41.015625 30.8125 33.5 32.328125 
L 27.484375 33.5 
Q 16.453125 35.6875 11.515625 40.375 
Q 6.59375 45.0625 6.59375 53.421875 
Q 6.59375 63.09375 13.40625 68.65625 
Q 20.21875 74.21875 32.171875 74.21875 
Q 37.3125 74.21875 42.625 73.28125 
Q 47.953125 72.359375 53.515625 70.515625 
z
" id="DejaVuSans-83"/>
       <path d="M 19.671875 64.796875 
L 19.671875 8.109375 
L 31.59375 8.109375 
Q 46.6875 8.109375 53.6875 14.9375 
Q 60.6875 21.78125 60.6875 36.53125 
Q 60.6875 51.171875 53.6875 57.984375 
Q 46.6875 64.796875 31.59375 64.796875 
z
M 9.8125 72.90625 
L 30.078125 72.90625 
Q 51.265625 72.90625 61.171875 64.09375 
Q 71.09375 55.28125 71.09375 36.53125 
Q 71.09375 17.671875 61.125 8.828125 
Q 51.171875 0 30.078125 0 
L 9.8125 0 
z
" id="DejaVuSans-68"/>
       <path d="M 3.328125 72.90625 
L 13.28125 72.90625 
L 28.609375 11.28125 
L 43.890625 72.90625 
L 54.984375 72.90625 
L 70.3125 11.28125 
L 85.59375 72.90625 
L 95.609375 72.90625 
L 77.296875 0 
L 64.890625 0 
L 49.515625 63.28125 
L 33.984375 0 
L 21.578125 0 
z
" id="DejaVuSans-87"/>
      </defs>
      <use xlink:href="#DejaVuSans-80"/>
      <use x="60.302734" xlink:href="#DejaVuSans-83"/>
      <use x="123.779297" xlink:href="#DejaVuSans-68"/>
      <use x="200.78125" xlink:href="#DejaVuSans-32"/>
      <use x="232.568359" xlink:href="#DejaVuSans-91"/>
      <use x="271.582031" xlink:href="#DejaVuSans-87"/>
      <use x="370.458984" xlink:href="#DejaVuSans-93"/>
     </g>
    </g>
    <g id="text_19">
     <!-- 1e−16 -->
     <g transform="translate(38.27 18.72)scale(0.1 -0.1)">
      <defs>
       <path d="M 10.59375 35.5 
L 73.1875 35.5 
L 73.1875 27.203125 
L 10.59375 27.203125 
z
" id="DejaVuSans-8722"/>
      </defs>
      <use xlink:href="#DejaVuSans-49"/>
      <use x="63.623047" xlink:href="#DejaVuSans-101"/>
      <use x="125.146484" xlink:href="#DejaVuSans-8722"/>
      <use x="208.935547" xlink:href="#DejaVuSans-49"/>
      <use x="272.558594" xlink:href="#DejaVuSans-54"/>
     </g>
    </g>
   </g>
   <g id="line2d_33">
    <path clip-path="url(#pbd5c66e255)" d="M 38.909173 -1 
L 39.454276 303.620677 
L 122.353623 303.536237 
L 123.537899 303.463481 
L 124.722175 303.243251 
L 125.906452 301.808452 
L 127.090728 257.823184 
L 128.275005 302.731009 
L 129.459281 303.373046 
L 131.827834 303.543741 
L 133.01211 302.702917 
L 134.196386 303.587277 
L 143.670597 303.623792 
L 170.908954 303.528524 
L 172.093231 302.642849 
L 173.277507 303.023966 
L 174.461783 303.539507 
L 178.014612 303.6019 
L 182.751718 303.586415 
L 183.935994 303.243256 
L 185.120271 303.510163 
L 187.488823 303.56831 
L 194.594482 303.479498 
L 196.963034 303.301389 
L 198.147311 302.592897 
L 199.331587 293.59967 
L 200.515864 303.043994 
L 201.70014 303.149737 
L 202.884416 303.028156 
L 204.068693 302.749895 
L 205.252969 302.159142 
L 206.437245 300.631153 
L 207.621522 294.336126 
L 208.805798 134.69583 
L 209.990075 271.259093 
L 211.174351 298.194462 
L 212.358627 301.253233 
L 213.542904 301.734904 
L 214.72718 302.885312 
L 215.911456 303.147323 
L 218.280009 303.373394 
L 223.017115 303.516331 
L 232.491326 303.5312 
L 236.044155 303.4587 
L 237.228431 303.178381 
L 239.596984 302.196836 
L 240.78126 299.58127 
L 241.965537 246.056936 
L 243.149813 285.895846 
L 244.334089 300.86758 
L 245.518366 302.533601 
L 246.702642 303.030662 
L 249.071195 303.344917 
L 251.439748 303.399895 
L 252.624024 303.27126 
L 253.808301 295.215481 
L 254.992577 303.142065 
L 256.176853 303.471219 
L 259.729682 303.532624 
L 263.282512 303.462591 
L 264.466788 303.372362 
L 265.651064 303.128147 
L 266.835341 302.021905 
L 268.019617 236.865329 
L 269.203893 300.511815 
L 270.38817 302.998852 
L 271.572446 303.363917 
L 273.940999 303.532779 
L 281.046657 303.59817 
L 285.783763 303.594665 
L 286.968039 303.421753 
L 288.152315 303.606781 
L 298.810803 303.495968 
L 301.179356 303.319578 
L 302.363632 303.031348 
L 303.547908 301.903098 
L 304.732185 276.557973 
L 305.916461 298.140259 
L 307.100737 302.827722 
L 308.285014 303.354459 
L 309.46929 303.499658 
L 311.837843 303.235029 
L 313.022119 302.471894 
L 314.206396 299.185924 
L 315.390672 303.25217 
L 316.574948 303.47354 
L 318.943501 303.526705 
L 320.127778 300.896969 
L 321.312054 303.527817 
L 324.864883 303.608465 
L 334.339094 303.617169 
L 335.52337 303.485861 
L 336.707647 303.61394 
L 349.734687 303.568157 
L 350.918963 273.052935 
L 352.10324 303.320651 
L 353.287516 299.515411 
L 354.471792 300.134675 
L 355.656069 302.626688 
L 356.840345 302.796096 
L 358.024622 302.571241 
L 359.208898 301.563377 
L 360.393174 289.483129 
L 361.577451 298.018661 
L 362.761727 303.078195 
L 363.946004 302.5106 
L 365.13028 288.455934 
L 366.314556 290.191212 
L 367.498833 301.739745 
L 368.683109 302.868146 
L 369.867385 303.209928 
L 372.235938 303.439994 
L 376.973044 303.553317 
L 379.341596 303.569854 
L 380.525873 290.263036 
L 381.710149 303.567063 
L 385.262978 303.336722 
L 386.447255 140.101323 
L 387.631531 303.17568 
L 388.815807 303.480702 
L 392.368637 303.568891 
L 398.290018 303.530304 
L 399.474295 303.387633 
L 400.658571 292.35185 
L 401.842848 303.03654 
L 403.027124 303.41026 
L 405.395677 303.445709 
L 407.764229 303.308997 
L 408.948506 303.080649 
L 410.132782 302.29991 
L 411.317059 290.46534 
L 412.501335 290.360014 
L 413.685611 302.472591 
L 414.869888 303.256386 
L 416.054164 303.451949 
L 421.975546 303.613991 
L 423.159822 303.525541 
L 425.528375 303.622921 
L 440.923968 303.618712 
L 440.923968 303.618712 
" style="fill:none;stroke:#000000;stroke-linecap:square;stroke-width:1.5;"/>
   </g>
   <g id="patch_3">
    <path d="M 38.27 303.64 
L 38.27 21.72 
" style="fill:none;stroke:#000000;stroke-linecap:square;stroke-linejoin:miter;stroke-width:0.8;"/>
   </g>
   <g id="patch_4">
    <path d="M 440.505 303.64 
L 440.505 21.72 
" style="fill:none;stroke:#000000;stroke-linecap:square;stroke-linejoin:miter;stroke-width:0.8;"/>
   </g>
   <g id="patch_5">
    <path d="M 38.27 303.64 
L 440.505 303.64 
" style="fill:none;stroke:#000000;stroke-linecap:square;stroke-linejoin:miter;stroke-width:0.8;"/>
   </g>
   <g id="patch_6">
    <path d="M 38.27 21.72 
L 440.505 21.72 
" style="fill:none;stroke:#000000;stroke-linecap:square;stroke-linejoin:miter;stroke-width:0.8;"/>
   </g>
  </g>
 </g>
 <defs>
  <clipPath id="pbd5c66e255">
   <rect height="281.92" width="402.235" x="38.27" y="21.72"/>
  </clipPath>
 </defs>
</svg>
