<?xml version="1.0" encoding="utf-8" standalone="no"?>
<!DOCTYPE svg PUBLIC "-//W3C//DTD SVG 1.1//EN"
  "http://www.w3.org/Graphics/SVG/1.1/DTD/svg11.dtd">
<!-- Created with matplotlib (https://matplotlib.org/) -->
<svg height="288pt" version="1.1" viewBox="0 0 360 288" width="360pt" xmlns="http://www.w3.org/2000/svg" xmlns:xlink="http://www.w3.org/1999/xlink">
 <metadata>
  <rdf:RDF xmlns:cc="http://creativecommons.org/ns#" xmlns:dc="http://purl.org/dc/elements/1.1/" xmlns:rdf="http://www.w3.org/1999/02/22-rdf-syntax-ns#">
   <cc:Work>
    <dc:type rdf:resource="http://purl.org/dc/dcmitype/StillImage"/>
    <dc:date>2021-03-16T22:10:10.132893</dc:date>
    <dc:format>image/svg+xml</dc:format>
    <dc:creator>
     <cc:Agent>
      <dc:title>Matplotlib v3.3.4, https://matplotlib.org/</dc:title>
     </cc:Agent>
    </dc:creator>
   </cc:Work>
  </rdf:RDF>
 </metadata>
 <defs>
  <style type="text/css">*{stroke-linecap:butt;stroke-linejoin:round;}</style>
 </defs>
 <g id="figure_1">
  <g id="patch_1">
   <path d="M 0 288 
L 360 288 
L 360 0 
L 0 0 
z
" style="fill:#ffffff;"/>
  </g>
  <g id="axes_1">
   <g id="patch_2">
    <path d="M 49.88 243.16 
L 346.41 243.16 
L 346.41 14.76 
L 49.88 14.76 
z
" style="fill:#ffffff;"/>
   </g>
   <g id="matplotlib.axis_1">
    <g id="xtick_1">
     <g id="line2d_1">
      <path clip-path="url(#p9f3e829d7e)" d="M 49.88 243.16 
L 49.88 14.76 
" style="fill:none;stroke:#b0b0b0;stroke-linecap:square;stroke-width:0.8;"/>
     </g>
     <g id="line2d_2">
      <defs>
       <path d="M 0 0 
L 0 3.5 
" id="m10949868aa" style="stroke:#000000;stroke-width:0.8;"/>
      </defs>
      <g>
       <use style="stroke:#000000;stroke-width:0.8;" x="49.88" xlink:href="#m10949868aa" y="243.16"/>
      </g>
     </g>
     <g id="text_1">
      <!-- Γ -->
      <g transform="translate(47.094062 257.758438)scale(0.1 -0.1)">
       <defs>
        <path d="M 9.8125 0 
L 9.8125 72.90625 
L 55.171875 72.90625 
L 55.171875 64.59375 
L 19.671875 64.59375 
L 19.671875 0 
z
" id="DejaVuSans-915"/>
       </defs>
       <use xlink:href="#DejaVuSans-915"/>
      </g>
     </g>
    </g>
    <g id="xtick_2">
     <g id="line2d_3">
      <path clip-path="url(#p9f3e829d7e)" d="M 136.731626 243.16 
L 136.731626 14.76 
" style="fill:none;stroke:#b0b0b0;stroke-linecap:square;stroke-width:0.8;"/>
     </g>
     <g id="line2d_4">
      <g>
       <use style="stroke:#000000;stroke-width:0.8;" x="136.731626" xlink:href="#m10949868aa" y="243.16"/>
      </g>
     </g>
     <g id="text_2">
      <!-- X -->
      <g transform="translate(133.306626 257.758438)scale(0.1 -0.1)">
       <defs>
        <path d="M 6.296875 72.90625 
L 16.890625 72.90625 
L 35.015625 45.796875 
L 53.21875 72.90625 
L 63.8125 72.90625 
L 40.375 37.890625 
L 65.375 0 
L 54.78125 0 
L 34.28125 31 
L 13.625 0 
L 2.984375 0 
L 29 38.921875 
z
" id="DejaVuSans-88"/>
       </defs>
       <use xlink:href="#DejaVuSans-88"/>
      </g>
     </g>
    </g>
    <g id="xtick_3">
     <g id="line2d_5">
      <path clip-path="url(#p9f3e829d7e)" d="M 223.583252 243.16 
L 223.583252 14.76 
" style="fill:none;stroke:#b0b0b0;stroke-linecap:square;stroke-width:0.8;"/>
     </g>
     <g id="line2d_6">
      <g>
       <use style="stroke:#000000;stroke-width:0.8;" x="223.583252" xlink:href="#m10949868aa" y="243.16"/>
      </g>
     </g>
     <g id="text_3">
      <!-- M -->
      <g transform="translate(219.26919 257.758438)scale(0.1 -0.1)">
       <defs>
        <path d="M 9.8125 72.90625 
L 24.515625 72.90625 
L 43.109375 23.296875 
L 61.8125 72.90625 
L 76.515625 72.90625 
L 76.515625 0 
L 66.890625 0 
L 66.890625 64.015625 
L 48.09375 14.015625 
L 38.1875 14.015625 
L 19.390625 64.015625 
L 19.390625 0 
L 9.8125 0 
z
" id="DejaVuSans-77"/>
       </defs>
       <use xlink:href="#DejaVuSans-77"/>
      </g>
     </g>
    </g>
    <g id="xtick_4">
     <g id="line2d_7">
      <path clip-path="url(#p9f3e829d7e)" d="M 346.41 243.16 
L 346.41 14.76 
" style="fill:none;stroke:#b0b0b0;stroke-linecap:square;stroke-width:0.8;"/>
     </g>
     <g id="line2d_8">
      <g>
       <use style="stroke:#000000;stroke-width:0.8;" x="346.41" xlink:href="#m10949868aa" y="243.16"/>
      </g>
     </g>
     <g id="text_4">
      <!-- Γ -->
      <g transform="translate(343.624062 257.758438)scale(0.1 -0.1)">
       <use xlink:href="#DejaVuSans-915"/>
      </g>
     </g>
    </g>
    <g id="text_5">
     <!-- Bloch Wave Vector $\beta$ -->
     <g transform="translate(145.995 271.538125)scale(0.1 -0.1)">
      <defs>
       <path d="M 19.671875 34.8125 
L 19.671875 8.109375 
L 35.5 8.109375 
Q 43.453125 8.109375 47.28125 11.40625 
Q 51.125 14.703125 51.125 21.484375 
Q 51.125 28.328125 47.28125 31.5625 
Q 43.453125 34.8125 35.5 34.8125 
z
M 19.671875 64.796875 
L 19.671875 42.828125 
L 34.28125 42.828125 
Q 41.5 42.828125 45.03125 45.53125 
Q 48.578125 48.25 48.578125 53.8125 
Q 48.578125 59.328125 45.03125 62.0625 
Q 41.5 64.796875 34.28125 64.796875 
z
M 9.8125 72.90625 
L 35.015625 72.90625 
Q 46.296875 72.90625 52.390625 68.21875 
Q 58.5 63.53125 58.5 54.890625 
Q 58.5 48.1875 55.375 44.234375 
Q 52.25 40.28125 46.1875 39.3125 
Q 53.46875 37.75 57.5 32.78125 
Q 61.53125 27.828125 61.53125 20.40625 
Q 61.53125 10.640625 54.890625 5.3125 
Q 48.25 0 35.984375 0 
L 9.8125 0 
z
" id="DejaVuSans-66"/>
       <path d="M 9.421875 75.984375 
L 18.40625 75.984375 
L 18.40625 0 
L 9.421875 0 
z
" id="DejaVuSans-108"/>
       <path d="M 30.609375 48.390625 
Q 23.390625 48.390625 19.1875 42.75 
Q 14.984375 37.109375 14.984375 27.296875 
Q 14.984375 17.484375 19.15625 11.84375 
Q 23.34375 6.203125 30.609375 6.203125 
Q 37.796875 6.203125 41.984375 11.859375 
Q 46.1875 17.53125 46.1875 27.296875 
Q 46.1875 37.015625 41.984375 42.703125 
Q 37.796875 48.390625 30.609375 48.390625 
z
M 30.609375 56 
Q 42.328125 56 49.015625 48.375 
Q 55.71875 40.765625 55.71875 27.296875 
Q 55.71875 13.875 49.015625 6.21875 
Q 42.328125 -1.421875 30.609375 -1.421875 
Q 18.84375 -1.421875 12.171875 6.21875 
Q 5.515625 13.875 5.515625 27.296875 
Q 5.515625 40.765625 12.171875 48.375 
Q 18.84375 56 30.609375 56 
z
" id="DejaVuSans-111"/>
       <path d="M 48.78125 52.59375 
L 48.78125 44.1875 
Q 44.96875 46.296875 41.140625 47.34375 
Q 37.3125 48.390625 33.40625 48.390625 
Q 24.65625 48.390625 19.8125 42.84375 
Q 14.984375 37.3125 14.984375 27.296875 
Q 14.984375 17.28125 19.8125 11.734375 
Q 24.65625 6.203125 33.40625 6.203125 
Q 37.3125 6.203125 41.140625 7.25 
Q 44.96875 8.296875 48.78125 10.40625 
L 48.78125 2.09375 
Q 45.015625 0.34375 40.984375 -0.53125 
Q 36.96875 -1.421875 32.421875 -1.421875 
Q 20.0625 -1.421875 12.78125 6.34375 
Q 5.515625 14.109375 5.515625 27.296875 
Q 5.515625 40.671875 12.859375 48.328125 
Q 20.21875 56 33.015625 56 
Q 37.15625 56 41.109375 55.140625 
Q 45.0625 54.296875 48.78125 52.59375 
z
" id="DejaVuSans-99"/>
       <path d="M 54.890625 33.015625 
L 54.890625 0 
L 45.90625 0 
L 45.90625 32.71875 
Q 45.90625 40.484375 42.875 44.328125 
Q 39.84375 48.1875 33.796875 48.1875 
Q 26.515625 48.1875 22.3125 43.546875 
Q 18.109375 38.921875 18.109375 30.90625 
L 18.109375 0 
L 9.078125 0 
L 9.078125 75.984375 
L 18.109375 75.984375 
L 18.109375 46.1875 
Q 21.34375 51.125 25.703125 53.5625 
Q 30.078125 56 35.796875 56 
Q 45.21875 56 50.046875 50.171875 
Q 54.890625 44.34375 54.890625 33.015625 
z
" id="DejaVuSans-104"/>
       <path id="DejaVuSans-32"/>
       <path d="M 3.328125 72.90625 
L 13.28125 72.90625 
L 28.609375 11.28125 
L 43.890625 72.90625 
L 54.984375 72.90625 
L 70.3125 11.28125 
L 85.59375 72.90625 
L 95.609375 72.90625 
L 77.296875 0 
L 64.890625 0 
L 49.515625 63.28125 
L 33.984375 0 
L 21.578125 0 
z
" id="DejaVuSans-87"/>
       <path d="M 34.28125 27.484375 
Q 23.390625 27.484375 19.1875 25 
Q 14.984375 22.515625 14.984375 16.5 
Q 14.984375 11.71875 18.140625 8.90625 
Q 21.296875 6.109375 26.703125 6.109375 
Q 34.1875 6.109375 38.703125 11.40625 
Q 43.21875 16.703125 43.21875 25.484375 
L 43.21875 27.484375 
z
M 52.203125 31.203125 
L 52.203125 0 
L 43.21875 0 
L 43.21875 8.296875 
Q 40.140625 3.328125 35.546875 0.953125 
Q 30.953125 -1.421875 24.3125 -1.421875 
Q 15.921875 -1.421875 10.953125 3.296875 
Q 6 8.015625 6 15.921875 
Q 6 25.140625 12.171875 29.828125 
Q 18.359375 34.515625 30.609375 34.515625 
L 43.21875 34.515625 
L 43.21875 35.40625 
Q 43.21875 41.609375 39.140625 45 
Q 35.0625 48.390625 27.6875 48.390625 
Q 23 48.390625 18.546875 47.265625 
Q 14.109375 46.140625 10.015625 43.890625 
L 10.015625 52.203125 
Q 14.9375 54.109375 19.578125 55.046875 
Q 24.21875 56 28.609375 56 
Q 40.484375 56 46.34375 49.84375 
Q 52.203125 43.703125 52.203125 31.203125 
z
" id="DejaVuSans-97"/>
       <path d="M 2.984375 54.6875 
L 12.5 54.6875 
L 29.59375 8.796875 
L 46.6875 54.6875 
L 56.203125 54.6875 
L 35.6875 0 
L 23.484375 0 
z
" id="DejaVuSans-118"/>
       <path d="M 56.203125 29.59375 
L 56.203125 25.203125 
L 14.890625 25.203125 
Q 15.484375 15.921875 20.484375 11.0625 
Q 25.484375 6.203125 34.421875 6.203125 
Q 39.59375 6.203125 44.453125 7.46875 
Q 49.3125 8.734375 54.109375 11.28125 
L 54.109375 2.78125 
Q 49.265625 0.734375 44.1875 -0.34375 
Q 39.109375 -1.421875 33.890625 -1.421875 
Q 20.796875 -1.421875 13.15625 6.1875 
Q 5.515625 13.8125 5.515625 26.8125 
Q 5.515625 40.234375 12.765625 48.109375 
Q 20.015625 56 32.328125 56 
Q 43.359375 56 49.78125 48.890625 
Q 56.203125 41.796875 56.203125 29.59375 
z
M 47.21875 32.234375 
Q 47.125 39.59375 43.09375 43.984375 
Q 39.0625 48.390625 32.421875 48.390625 
Q 24.90625 48.390625 20.390625 44.140625 
Q 15.875 39.890625 15.1875 32.171875 
z
" id="DejaVuSans-101"/>
       <path d="M 28.609375 0 
L 0.78125 72.90625 
L 11.078125 72.90625 
L 34.1875 11.53125 
L 57.328125 72.90625 
L 67.578125 72.90625 
L 39.796875 0 
z
" id="DejaVuSans-86"/>
       <path d="M 18.3125 70.21875 
L 18.3125 54.6875 
L 36.8125 54.6875 
L 36.8125 47.703125 
L 18.3125 47.703125 
L 18.3125 18.015625 
Q 18.3125 11.328125 20.140625 9.421875 
Q 21.96875 7.515625 27.59375 7.515625 
L 36.8125 7.515625 
L 36.8125 0 
L 27.59375 0 
Q 17.1875 0 13.234375 3.875 
Q 9.28125 7.765625 9.28125 18.015625 
L 9.28125 47.703125 
L 2.6875 47.703125 
L 2.6875 54.6875 
L 9.28125 54.6875 
L 9.28125 70.21875 
z
" id="DejaVuSans-116"/>
       <path d="M 41.109375 46.296875 
Q 39.59375 47.171875 37.8125 47.578125 
Q 36.03125 48 33.890625 48 
Q 26.265625 48 22.1875 43.046875 
Q 18.109375 38.09375 18.109375 28.8125 
L 18.109375 0 
L 9.078125 0 
L 9.078125 54.6875 
L 18.109375 54.6875 
L 18.109375 46.1875 
Q 20.953125 51.171875 25.484375 53.578125 
Q 30.03125 56 36.53125 56 
Q 37.453125 56 38.578125 55.875 
Q 39.703125 55.765625 41.0625 55.515625 
z
" id="DejaVuSans-114"/>
       <path d="M 13.625 3.375 
L 8.9375 -20.796875 
L -0.09375 -20.796875 
L 14.5 54.34375 
Q 18.84375 76.609375 39.65625 76.609375 
Q 60.75 76.609375 57.171875 57.8125 
Q 54.734375 44.4375 45.21875 39.546875 
Q 58.015625 35.15625 55.515625 22.125 
Q 51.125 -1.078125 27.484375 -1.03125 
Q 17.140625 -0.984375 13.625 3.375 
z
M 15.921875 15.09375 
Q 19.671875 6.59375 29.296875 6.640625 
Q 43.359375 6.640625 46.34375 21.96875 
Q 49.03125 35.75 26.171875 34.671875 
L 27.78125 42.96875 
Q 45.453125 42.671875 48.53125 58.59375 
Q 50.640625 69.34375 39.203125 69.28125 
Q 26.421875 69.28125 23.484375 54.046875 
z
" id="DejaVuSans-Oblique-946"/>
      </defs>
      <use transform="translate(0 0.390625)" xlink:href="#DejaVuSans-66"/>
      <use transform="translate(68.603516 0.390625)" xlink:href="#DejaVuSans-108"/>
      <use transform="translate(96.386719 0.390625)" xlink:href="#DejaVuSans-111"/>
      <use transform="translate(157.568359 0.390625)" xlink:href="#DejaVuSans-99"/>
      <use transform="translate(212.548828 0.390625)" xlink:href="#DejaVuSans-104"/>
      <use transform="translate(275.927734 0.390625)" xlink:href="#DejaVuSans-32"/>
      <use transform="translate(307.714844 0.390625)" xlink:href="#DejaVuSans-87"/>
      <use transform="translate(406.591797 0.390625)" xlink:href="#DejaVuSans-97"/>
      <use transform="translate(467.871094 0.390625)" xlink:href="#DejaVuSans-118"/>
      <use transform="translate(527.050781 0.390625)" xlink:href="#DejaVuSans-101"/>
      <use transform="translate(588.574219 0.390625)" xlink:href="#DejaVuSans-32"/>
      <use transform="translate(620.361328 0.390625)" xlink:href="#DejaVuSans-86"/>
      <use transform="translate(688.769531 0.390625)" xlink:href="#DejaVuSans-101"/>
      <use transform="translate(750.292969 0.390625)" xlink:href="#DejaVuSans-99"/>
      <use transform="translate(805.273438 0.390625)" xlink:href="#DejaVuSans-116"/>
      <use transform="translate(844.482422 0.390625)" xlink:href="#DejaVuSans-111"/>
      <use transform="translate(905.664062 0.390625)" xlink:href="#DejaVuSans-114"/>
      <use transform="translate(946.777344 0.390625)" xlink:href="#DejaVuSans-32"/>
      <use transform="translate(978.564453 0.390625)" xlink:href="#DejaVuSans-Oblique-946"/>
     </g>
    </g>
   </g>
   <g id="matplotlib.axis_2">
    <g id="ytick_1">
     <g id="line2d_9">
      <path clip-path="url(#p9f3e829d7e)" d="M 49.88 243.16 
L 346.41 243.16 
" style="fill:none;stroke:#b0b0b0;stroke-linecap:square;stroke-width:0.8;"/>
     </g>
     <g id="line2d_10">
      <defs>
       <path d="M 0 0 
L -3.5 0 
" id="mefcd172254" style="stroke:#000000;stroke-width:0.8;"/>
      </defs>
      <g>
       <use style="stroke:#000000;stroke-width:0.8;" x="49.88" xlink:href="#mefcd172254" y="243.16"/>
      </g>
     </g>
     <g id="text_6">
      <!-- 0.0 -->
      <g transform="translate(26.976875 246.959219)scale(0.1 -0.1)">
       <defs>
        <path d="M 31.78125 66.40625 
Q 24.171875 66.40625 20.328125 58.90625 
Q 16.5 51.421875 16.5 36.375 
Q 16.5 21.390625 20.328125 13.890625 
Q 24.171875 6.390625 31.78125 6.390625 
Q 39.453125 6.390625 43.28125 13.890625 
Q 47.125 21.390625 47.125 36.375 
Q 47.125 51.421875 43.28125 58.90625 
Q 39.453125 66.40625 31.78125 66.40625 
z
M 31.78125 74.21875 
Q 44.046875 74.21875 50.515625 64.515625 
Q 56.984375 54.828125 56.984375 36.375 
Q 56.984375 17.96875 50.515625 8.265625 
Q 44.046875 -1.421875 31.78125 -1.421875 
Q 19.53125 -1.421875 13.0625 8.265625 
Q 6.59375 17.96875 6.59375 36.375 
Q 6.59375 54.828125 13.0625 64.515625 
Q 19.53125 74.21875 31.78125 74.21875 
z
" id="DejaVuSans-48"/>
        <path d="M 10.6875 12.40625 
L 21 12.40625 
L 21 0 
L 10.6875 0 
z
" id="DejaVuSans-46"/>
       </defs>
       <use xlink:href="#DejaVuSans-48"/>
       <use x="63.623047" xlink:href="#DejaVuSans-46"/>
       <use x="95.410156" xlink:href="#DejaVuSans-48"/>
      </g>
     </g>
    </g>
    <g id="ytick_2">
     <g id="line2d_11">
      <path clip-path="url(#p9f3e829d7e)" d="M 49.88 214.61 
L 346.41 214.61 
" style="fill:none;stroke:#b0b0b0;stroke-linecap:square;stroke-width:0.8;"/>
     </g>
     <g id="line2d_12">
      <g>
       <use style="stroke:#000000;stroke-width:0.8;" x="49.88" xlink:href="#mefcd172254" y="214.61"/>
      </g>
     </g>
     <g id="text_7">
      <!-- 0.1 -->
      <g transform="translate(26.976875 218.409219)scale(0.1 -0.1)">
       <defs>
        <path d="M 12.40625 8.296875 
L 28.515625 8.296875 
L 28.515625 63.921875 
L 10.984375 60.40625 
L 10.984375 69.390625 
L 28.421875 72.90625 
L 38.28125 72.90625 
L 38.28125 8.296875 
L 54.390625 8.296875 
L 54.390625 0 
L 12.40625 0 
z
" id="DejaVuSans-49"/>
       </defs>
       <use xlink:href="#DejaVuSans-48"/>
       <use x="63.623047" xlink:href="#DejaVuSans-46"/>
       <use x="95.410156" xlink:href="#DejaVuSans-49"/>
      </g>
     </g>
    </g>
    <g id="ytick_3">
     <g id="line2d_13">
      <path clip-path="url(#p9f3e829d7e)" d="M 49.88 186.06 
L 346.41 186.06 
" style="fill:none;stroke:#b0b0b0;stroke-linecap:square;stroke-width:0.8;"/>
     </g>
     <g id="line2d_14">
      <g>
       <use style="stroke:#000000;stroke-width:0.8;" x="49.88" xlink:href="#mefcd172254" y="186.06"/>
      </g>
     </g>
     <g id="text_8">
      <!-- 0.2 -->
      <g transform="translate(26.976875 189.859219)scale(0.1 -0.1)">
       <defs>
        <path d="M 19.1875 8.296875 
L 53.609375 8.296875 
L 53.609375 0 
L 7.328125 0 
L 7.328125 8.296875 
Q 12.9375 14.109375 22.625 23.890625 
Q 32.328125 33.6875 34.8125 36.53125 
Q 39.546875 41.84375 41.421875 45.53125 
Q 43.3125 49.21875 43.3125 52.78125 
Q 43.3125 58.59375 39.234375 62.25 
Q 35.15625 65.921875 28.609375 65.921875 
Q 23.96875 65.921875 18.8125 64.3125 
Q 13.671875 62.703125 7.8125 59.421875 
L 7.8125 69.390625 
Q 13.765625 71.78125 18.9375 73 
Q 24.125 74.21875 28.421875 74.21875 
Q 39.75 74.21875 46.484375 68.546875 
Q 53.21875 62.890625 53.21875 53.421875 
Q 53.21875 48.921875 51.53125 44.890625 
Q 49.859375 40.875 45.40625 35.40625 
Q 44.1875 33.984375 37.640625 27.21875 
Q 31.109375 20.453125 19.1875 8.296875 
z
" id="DejaVuSans-50"/>
       </defs>
       <use xlink:href="#DejaVuSans-48"/>
       <use x="63.623047" xlink:href="#DejaVuSans-46"/>
       <use x="95.410156" xlink:href="#DejaVuSans-50"/>
      </g>
     </g>
    </g>
    <g id="ytick_4">
     <g id="line2d_15">
      <path clip-path="url(#p9f3e829d7e)" d="M 49.88 157.51 
L 346.41 157.51 
" style="fill:none;stroke:#b0b0b0;stroke-linecap:square;stroke-width:0.8;"/>
     </g>
     <g id="line2d_16">
      <g>
       <use style="stroke:#000000;stroke-width:0.8;" x="49.88" xlink:href="#mefcd172254" y="157.51"/>
      </g>
     </g>
     <g id="text_9">
      <!-- 0.3 -->
      <g transform="translate(26.976875 161.309219)scale(0.1 -0.1)">
       <defs>
        <path d="M 40.578125 39.3125 
Q 47.65625 37.796875 51.625 33 
Q 55.609375 28.21875 55.609375 21.1875 
Q 55.609375 10.40625 48.1875 4.484375 
Q 40.765625 -1.421875 27.09375 -1.421875 
Q 22.515625 -1.421875 17.65625 -0.515625 
Q 12.796875 0.390625 7.625 2.203125 
L 7.625 11.71875 
Q 11.71875 9.328125 16.59375 8.109375 
Q 21.484375 6.890625 26.8125 6.890625 
Q 36.078125 6.890625 40.9375 10.546875 
Q 45.796875 14.203125 45.796875 21.1875 
Q 45.796875 27.640625 41.28125 31.265625 
Q 36.765625 34.90625 28.71875 34.90625 
L 20.21875 34.90625 
L 20.21875 43.015625 
L 29.109375 43.015625 
Q 36.375 43.015625 40.234375 45.921875 
Q 44.09375 48.828125 44.09375 54.296875 
Q 44.09375 59.90625 40.109375 62.90625 
Q 36.140625 65.921875 28.71875 65.921875 
Q 24.65625 65.921875 20.015625 65.03125 
Q 15.375 64.15625 9.8125 62.3125 
L 9.8125 71.09375 
Q 15.4375 72.65625 20.34375 73.4375 
Q 25.25 74.21875 29.59375 74.21875 
Q 40.828125 74.21875 47.359375 69.109375 
Q 53.90625 64.015625 53.90625 55.328125 
Q 53.90625 49.265625 50.4375 45.09375 
Q 46.96875 40.921875 40.578125 39.3125 
z
" id="DejaVuSans-51"/>
       </defs>
       <use xlink:href="#DejaVuSans-48"/>
       <use x="63.623047" xlink:href="#DejaVuSans-46"/>
       <use x="95.410156" xlink:href="#DejaVuSans-51"/>
      </g>
     </g>
    </g>
    <g id="ytick_5">
     <g id="line2d_17">
      <path clip-path="url(#p9f3e829d7e)" d="M 49.88 128.96 
L 346.41 128.96 
" style="fill:none;stroke:#b0b0b0;stroke-linecap:square;stroke-width:0.8;"/>
     </g>
     <g id="line2d_18">
      <g>
       <use style="stroke:#000000;stroke-width:0.8;" x="49.88" xlink:href="#mefcd172254" y="128.96"/>
      </g>
     </g>
     <g id="text_10">
      <!-- 0.4 -->
      <g transform="translate(26.976875 132.759219)scale(0.1 -0.1)">
       <defs>
        <path d="M 37.796875 64.3125 
L 12.890625 25.390625 
L 37.796875 25.390625 
z
M 35.203125 72.90625 
L 47.609375 72.90625 
L 47.609375 25.390625 
L 58.015625 25.390625 
L 58.015625 17.1875 
L 47.609375 17.1875 
L 47.609375 0 
L 37.796875 0 
L 37.796875 17.1875 
L 4.890625 17.1875 
L 4.890625 26.703125 
z
" id="DejaVuSans-52"/>
       </defs>
       <use xlink:href="#DejaVuSans-48"/>
       <use x="63.623047" xlink:href="#DejaVuSans-46"/>
       <use x="95.410156" xlink:href="#DejaVuSans-52"/>
      </g>
     </g>
    </g>
    <g id="ytick_6">
     <g id="line2d_19">
      <path clip-path="url(#p9f3e829d7e)" d="M 49.88 100.41 
L 346.41 100.41 
" style="fill:none;stroke:#b0b0b0;stroke-linecap:square;stroke-width:0.8;"/>
     </g>
     <g id="line2d_20">
      <g>
       <use style="stroke:#000000;stroke-width:0.8;" x="49.88" xlink:href="#mefcd172254" y="100.41"/>
      </g>
     </g>
     <g id="text_11">
      <!-- 0.5 -->
      <g transform="translate(26.976875 104.209219)scale(0.1 -0.1)">
       <defs>
        <path d="M 10.796875 72.90625 
L 49.515625 72.90625 
L 49.515625 64.59375 
L 19.828125 64.59375 
L 19.828125 46.734375 
Q 21.96875 47.46875 24.109375 47.828125 
Q 26.265625 48.1875 28.421875 48.1875 
Q 40.625 48.1875 47.75 41.5 
Q 54.890625 34.8125 54.890625 23.390625 
Q 54.890625 11.625 47.5625 5.09375 
Q 40.234375 -1.421875 26.90625 -1.421875 
Q 22.3125 -1.421875 17.546875 -0.640625 
Q 12.796875 0.140625 7.71875 1.703125 
L 7.71875 11.625 
Q 12.109375 9.234375 16.796875 8.0625 
Q 21.484375 6.890625 26.703125 6.890625 
Q 35.15625 6.890625 40.078125 11.328125 
Q 45.015625 15.765625 45.015625 23.390625 
Q 45.015625 31 40.078125 35.4375 
Q 35.15625 39.890625 26.703125 39.890625 
Q 22.75 39.890625 18.8125 39.015625 
Q 14.890625 38.140625 10.796875 36.28125 
z
" id="DejaVuSans-53"/>
       </defs>
       <use xlink:href="#DejaVuSans-48"/>
       <use x="63.623047" xlink:href="#DejaVuSans-46"/>
       <use x="95.410156" xlink:href="#DejaVuSans-53"/>
      </g>
     </g>
    </g>
    <g id="ytick_7">
     <g id="line2d_21">
      <path clip-path="url(#p9f3e829d7e)" d="M 49.88 71.86 
L 346.41 71.86 
" style="fill:none;stroke:#b0b0b0;stroke-linecap:square;stroke-width:0.8;"/>
     </g>
     <g id="line2d_22">
      <g>
       <use style="stroke:#000000;stroke-width:0.8;" x="49.88" xlink:href="#mefcd172254" y="71.86"/>
      </g>
     </g>
     <g id="text_12">
      <!-- 0.6 -->
      <g transform="translate(26.976875 75.659219)scale(0.1 -0.1)">
       <defs>
        <path d="M 33.015625 40.375 
Q 26.375 40.375 22.484375 35.828125 
Q 18.609375 31.296875 18.609375 23.390625 
Q 18.609375 15.53125 22.484375 10.953125 
Q 26.375 6.390625 33.015625 6.390625 
Q 39.65625 6.390625 43.53125 10.953125 
Q 47.40625 15.53125 47.40625 23.390625 
Q 47.40625 31.296875 43.53125 35.828125 
Q 39.65625 40.375 33.015625 40.375 
z
M 52.59375 71.296875 
L 52.59375 62.3125 
Q 48.875 64.0625 45.09375 64.984375 
Q 41.3125 65.921875 37.59375 65.921875 
Q 27.828125 65.921875 22.671875 59.328125 
Q 17.53125 52.734375 16.796875 39.40625 
Q 19.671875 43.65625 24.015625 45.921875 
Q 28.375 48.1875 33.59375 48.1875 
Q 44.578125 48.1875 50.953125 41.515625 
Q 57.328125 34.859375 57.328125 23.390625 
Q 57.328125 12.15625 50.6875 5.359375 
Q 44.046875 -1.421875 33.015625 -1.421875 
Q 20.359375 -1.421875 13.671875 8.265625 
Q 6.984375 17.96875 6.984375 36.375 
Q 6.984375 53.65625 15.1875 63.9375 
Q 23.390625 74.21875 37.203125 74.21875 
Q 40.921875 74.21875 44.703125 73.484375 
Q 48.484375 72.75 52.59375 71.296875 
z
" id="DejaVuSans-54"/>
       </defs>
       <use xlink:href="#DejaVuSans-48"/>
       <use x="63.623047" xlink:href="#DejaVuSans-46"/>
       <use x="95.410156" xlink:href="#DejaVuSans-54"/>
      </g>
     </g>
    </g>
    <g id="ytick_8">
     <g id="line2d_23">
      <path clip-path="url(#p9f3e829d7e)" d="M 49.88 43.31 
L 346.41 43.31 
" style="fill:none;stroke:#b0b0b0;stroke-linecap:square;stroke-width:0.8;"/>
     </g>
     <g id="line2d_24">
      <g>
       <use style="stroke:#000000;stroke-width:0.8;" x="49.88" xlink:href="#mefcd172254" y="43.31"/>
      </g>
     </g>
     <g id="text_13">
      <!-- 0.7 -->
      <g transform="translate(26.976875 47.109219)scale(0.1 -0.1)">
       <defs>
        <path d="M 8.203125 72.90625 
L 55.078125 72.90625 
L 55.078125 68.703125 
L 28.609375 0 
L 18.3125 0 
L 43.21875 64.59375 
L 8.203125 64.59375 
z
" id="DejaVuSans-55"/>
       </defs>
       <use xlink:href="#DejaVuSans-48"/>
       <use x="63.623047" xlink:href="#DejaVuSans-46"/>
       <use x="95.410156" xlink:href="#DejaVuSans-55"/>
      </g>
     </g>
    </g>
    <g id="ytick_9">
     <g id="line2d_25">
      <path clip-path="url(#p9f3e829d7e)" d="M 49.88 14.76 
L 346.41 14.76 
" style="fill:none;stroke:#b0b0b0;stroke-linecap:square;stroke-width:0.8;"/>
     </g>
     <g id="line2d_26">
      <g>
       <use style="stroke:#000000;stroke-width:0.8;" x="49.88" xlink:href="#mefcd172254" y="14.76"/>
      </g>
     </g>
     <g id="text_14">
      <!-- 0.8 -->
      <g transform="translate(26.976875 18.559219)scale(0.1 -0.1)">
       <defs>
        <path d="M 31.78125 34.625 
Q 24.75 34.625 20.71875 30.859375 
Q 16.703125 27.09375 16.703125 20.515625 
Q 16.703125 13.921875 20.71875 10.15625 
Q 24.75 6.390625 31.78125 6.390625 
Q 38.8125 6.390625 42.859375 10.171875 
Q 46.921875 13.96875 46.921875 20.515625 
Q 46.921875 27.09375 42.890625 30.859375 
Q 38.875 34.625 31.78125 34.625 
z
M 21.921875 38.8125 
Q 15.578125 40.375 12.03125 44.71875 
Q 8.5 49.078125 8.5 55.328125 
Q 8.5 64.0625 14.71875 69.140625 
Q 20.953125 74.21875 31.78125 74.21875 
Q 42.671875 74.21875 48.875 69.140625 
Q 55.078125 64.0625 55.078125 55.328125 
Q 55.078125 49.078125 51.53125 44.71875 
Q 48 40.375 41.703125 38.8125 
Q 48.828125 37.15625 52.796875 32.3125 
Q 56.78125 27.484375 56.78125 20.515625 
Q 56.78125 9.90625 50.3125 4.234375 
Q 43.84375 -1.421875 31.78125 -1.421875 
Q 19.734375 -1.421875 13.25 4.234375 
Q 6.78125 9.90625 6.78125 20.515625 
Q 6.78125 27.484375 10.78125 32.3125 
Q 14.796875 37.15625 21.921875 38.8125 
z
M 18.3125 54.390625 
Q 18.3125 48.734375 21.84375 45.5625 
Q 25.390625 42.390625 31.78125 42.390625 
Q 38.140625 42.390625 41.71875 45.5625 
Q 45.3125 48.734375 45.3125 54.390625 
Q 45.3125 60.0625 41.71875 63.234375 
Q 38.140625 66.40625 31.78125 66.40625 
Q 25.390625 66.40625 21.84375 63.234375 
Q 18.3125 60.0625 18.3125 54.390625 
z
" id="DejaVuSans-56"/>
       </defs>
       <use xlink:href="#DejaVuSans-48"/>
       <use x="63.623047" xlink:href="#DejaVuSans-46"/>
       <use x="95.410156" xlink:href="#DejaVuSans-56"/>
      </g>
     </g>
    </g>
    <g id="text_15">
     <!-- Frequency ${\omega a}/{2\pi c}$ -->
     <g transform="translate(20.876875 174.76)rotate(-90)scale(0.1 -0.1)">
      <defs>
       <path d="M 9.8125 72.90625 
L 51.703125 72.90625 
L 51.703125 64.59375 
L 19.671875 64.59375 
L 19.671875 43.109375 
L 48.578125 43.109375 
L 48.578125 34.8125 
L 19.671875 34.8125 
L 19.671875 0 
L 9.8125 0 
z
" id="DejaVuSans-70"/>
       <path d="M 14.796875 27.296875 
Q 14.796875 17.390625 18.875 11.75 
Q 22.953125 6.109375 30.078125 6.109375 
Q 37.203125 6.109375 41.296875 11.75 
Q 45.40625 17.390625 45.40625 27.296875 
Q 45.40625 37.203125 41.296875 42.84375 
Q 37.203125 48.484375 30.078125 48.484375 
Q 22.953125 48.484375 18.875 42.84375 
Q 14.796875 37.203125 14.796875 27.296875 
z
M 45.40625 8.203125 
Q 42.578125 3.328125 38.25 0.953125 
Q 33.9375 -1.421875 27.875 -1.421875 
Q 17.96875 -1.421875 11.734375 6.484375 
Q 5.515625 14.40625 5.515625 27.296875 
Q 5.515625 40.1875 11.734375 48.09375 
Q 17.96875 56 27.875 56 
Q 33.9375 56 38.25 53.625 
Q 42.578125 51.265625 45.40625 46.390625 
L 45.40625 54.6875 
L 54.390625 54.6875 
L 54.390625 -20.796875 
L 45.40625 -20.796875 
z
" id="DejaVuSans-113"/>
       <path d="M 8.5 21.578125 
L 8.5 54.6875 
L 17.484375 54.6875 
L 17.484375 21.921875 
Q 17.484375 14.15625 20.5 10.265625 
Q 23.53125 6.390625 29.59375 6.390625 
Q 36.859375 6.390625 41.078125 11.03125 
Q 45.3125 15.671875 45.3125 23.6875 
L 45.3125 54.6875 
L 54.296875 54.6875 
L 54.296875 0 
L 45.3125 0 
L 45.3125 8.40625 
Q 42.046875 3.421875 37.71875 1 
Q 33.40625 -1.421875 27.6875 -1.421875 
Q 18.265625 -1.421875 13.375 4.4375 
Q 8.5 10.296875 8.5 21.578125 
z
M 31.109375 56 
z
" id="DejaVuSans-117"/>
       <path d="M 54.890625 33.015625 
L 54.890625 0 
L 45.90625 0 
L 45.90625 32.71875 
Q 45.90625 40.484375 42.875 44.328125 
Q 39.84375 48.1875 33.796875 48.1875 
Q 26.515625 48.1875 22.3125 43.546875 
Q 18.109375 38.921875 18.109375 30.90625 
L 18.109375 0 
L 9.078125 0 
L 9.078125 54.6875 
L 18.109375 54.6875 
L 18.109375 46.1875 
Q 21.34375 51.125 25.703125 53.5625 
Q 30.078125 56 35.796875 56 
Q 45.21875 56 50.046875 50.171875 
Q 54.890625 44.34375 54.890625 33.015625 
z
" id="DejaVuSans-110"/>
       <path d="M 32.171875 -5.078125 
Q 28.375 -14.84375 24.75 -17.8125 
Q 21.140625 -20.796875 15.09375 -20.796875 
L 7.90625 -20.796875 
L 7.90625 -13.28125 
L 13.1875 -13.28125 
Q 16.890625 -13.28125 18.9375 -11.515625 
Q 21 -9.765625 23.484375 -3.21875 
L 25.09375 0.875 
L 2.984375 54.6875 
L 12.5 54.6875 
L 29.59375 11.921875 
L 46.6875 54.6875 
L 56.203125 54.6875 
z
" id="DejaVuSans-121"/>
       <path d="M 21.390625 -1.421875 
Q 1.125 -1.421875 6.78125 27.59375 
Q 8.984375 39.0625 19.625 54.6875 
L 29.296875 54.6875 
Q 19.234375 39.0625 17 27.34375 
Q 12.796875 6.203125 23.734375 6.203125 
Q 33.84375 6.203125 38.71875 32.46875 
L 47.015625 32.46875 
Q 41.703125 6.0625 51.8125 6.203125 
Q 62.703125 6.296875 66.796875 27.34375 
Q 69.046875 39.0625 65.140625 54.6875 
L 74.8125 54.6875 
Q 79.296875 39.0625 77.09375 27.59375 
Q 71.53125 -1.46875 51.21875 -1.421875 
Q 37.9375 -1.375 39.109375 13.1875 
Q 34.28125 -1.421875 21.390625 -1.421875 
z
" id="DejaVuSans-Oblique-969"/>
       <path d="M 53.71875 31.203125 
L 47.609375 0 
L 38.625 0 
L 40.28125 8.296875 
Q 36.328125 3.421875 31.265625 1 
Q 26.21875 -1.421875 20.015625 -1.421875 
Q 13.03125 -1.421875 8.5625 2.84375 
Q 4.109375 7.125 4.109375 13.8125 
Q 4.109375 23.390625 11.75 28.953125 
Q 19.390625 34.515625 32.8125 34.515625 
L 45.3125 34.515625 
L 45.796875 36.921875 
Q 45.90625 37.3125 45.953125 37.765625 
Q 46 38.234375 46 39.203125 
Q 46 43.5625 42.453125 45.96875 
Q 38.921875 48.390625 32.515625 48.390625 
Q 28.125 48.390625 23.5 47.265625 
Q 18.890625 46.140625 14.015625 43.890625 
L 15.578125 52.203125 
Q 20.65625 54.109375 25.515625 55.046875 
Q 30.375 56 34.90625 56 
Q 44.578125 56 49.625 51.796875 
Q 54.6875 47.609375 54.6875 39.59375 
Q 54.6875 37.984375 54.4375 35.8125 
Q 54.203125 33.640625 53.71875 31.203125 
z
M 44 27.484375 
L 35.015625 27.484375 
Q 23.96875 27.484375 18.671875 24.53125 
Q 13.375 21.578125 13.375 15.375 
Q 13.375 11.078125 16.078125 8.640625 
Q 18.796875 6.203125 23.578125 6.203125 
Q 30.90625 6.203125 36.375 11.453125 
Q 41.84375 16.703125 43.609375 25.484375 
z
" id="DejaVuSans-Oblique-97"/>
       <path d="M 25.390625 72.90625 
L 33.6875 72.90625 
L 8.296875 -9.28125 
L 0 -9.28125 
z
" id="DejaVuSans-47"/>
       <path d="M 9.125 54.6875 
L 61.53125 54.6875 
L 59.765625 45.703125 
L 52.875 45.703125 
L 46.34375 12.109375 
Q 45.65625 8.59375 46.578125 7.03125 
Q 47.46875 5.515625 50.140625 5.515625 
Q 50.875 5.515625 51.953125 5.671875 
Q 53.078125 5.765625 53.421875 5.8125 
L 52.15625 -0.6875 
Q 50.34375 -1.3125 48.484375 -1.609375 
Q 46.578125 -1.90625 44.78125 -1.90625 
Q 38.921875 -1.90625 37.3125 1.265625 
Q 35.6875 4.5 37.359375 13.09375 
L 43.703125 45.703125 
L 23.53125 45.703125 
L 14.65625 0 
L 5.46875 0 
L 14.359375 45.703125 
L 7.375 45.703125 
z
" id="DejaVuSans-Oblique-960"/>
       <path d="M 53.609375 52.59375 
L 51.8125 43.703125 
Q 48.578125 46.046875 44.9375 47.21875 
Q 41.3125 48.390625 37.40625 48.390625 
Q 33.109375 48.390625 29.21875 46.875 
Q 25.34375 45.359375 22.703125 42.578125 
Q 18.5 38.328125 16.203125 32.609375 
Q 13.921875 26.90625 13.921875 20.796875 
Q 13.921875 13.421875 17.609375 9.8125 
Q 21.296875 6.203125 28.8125 6.203125 
Q 32.515625 6.203125 36.6875 7.328125 
Q 40.875 8.453125 45.40625 10.6875 
L 43.703125 1.8125 
Q 39.796875 0.203125 35.671875 -0.609375 
Q 31.546875 -1.421875 27.203125 -1.421875 
Q 16.3125 -1.421875 10.453125 4.015625 
Q 4.59375 9.46875 4.59375 19.578125 
Q 4.59375 28.078125 7.640625 35.234375 
Q 10.6875 42.390625 16.703125 48.09375 
Q 20.796875 52 26.3125 54 
Q 31.84375 56 38.375 56 
Q 42.1875 56 45.9375 55.140625 
Q 49.703125 54.296875 53.609375 52.59375 
z
" id="DejaVuSans-Oblique-99"/>
      </defs>
      <use transform="translate(0 0.78125)" xlink:href="#DejaVuSans-70"/>
      <use transform="translate(57.519531 0.78125)" xlink:href="#DejaVuSans-114"/>
      <use transform="translate(98.632812 0.78125)" xlink:href="#DejaVuSans-101"/>
      <use transform="translate(160.15625 0.78125)" xlink:href="#DejaVuSans-113"/>
      <use transform="translate(223.632812 0.78125)" xlink:href="#DejaVuSans-117"/>
      <use transform="translate(287.011719 0.78125)" xlink:href="#DejaVuSans-101"/>
      <use transform="translate(348.535156 0.78125)" xlink:href="#DejaVuSans-110"/>
      <use transform="translate(411.914062 0.78125)" xlink:href="#DejaVuSans-99"/>
      <use transform="translate(466.894531 0.78125)" xlink:href="#DejaVuSans-121"/>
      <use transform="translate(526.074219 0.78125)" xlink:href="#DejaVuSans-32"/>
      <use transform="translate(557.861328 0.78125)" xlink:href="#DejaVuSans-Oblique-969"/>
      <use transform="translate(641.601562 0.78125)" xlink:href="#DejaVuSans-Oblique-97"/>
      <use transform="translate(702.880859 0.78125)" xlink:href="#DejaVuSans-47"/>
      <use transform="translate(736.572266 0.78125)" xlink:href="#DejaVuSans-50"/>
      <use transform="translate(800.195312 0.78125)" xlink:href="#DejaVuSans-Oblique-960"/>
      <use transform="translate(860.400391 0.78125)" xlink:href="#DejaVuSans-Oblique-99"/>
     </g>
    </g>
   </g>
   <g id="line2d_27">
    <path clip-path="url(#p9f3e829d7e)" d="M 49.88 243.159984 
L 52.875253 239.742277 
L 55.870505 236.327746 
L 58.865758 232.919627 
L 61.86101 229.521201 
L 64.856263 226.135834 
L 67.851515 222.767023 
L 70.846768 219.418424 
L 73.84202 216.093903 
L 76.837273 212.79759 
L 79.832525 209.533935 
L 82.827778 206.307792 
L 85.82303 203.124505 
L 88.818283 199.990027 
L 91.813535 196.911056 
L 94.808788 193.895213 
L 97.80404 190.951256 
L 100.799293 188.089347 
L 103.794545 185.321374 
L 106.789798 182.661339 
L 109.785051 180.125799 
L 112.780303 177.734346 
L 115.775556 175.510061 
L 118.770808 173.479832 
L 121.766061 171.674338 
L 124.761313 170.127415 
L 127.756566 168.874475 
L 130.751818 167.949719 
L 133.747071 167.382268 
L 136.742323 167.191883 
L 139.737576 167.157991 
L 142.732828 167.057097 
L 145.728081 166.890106 
L 148.723333 166.658521 
L 151.718586 166.364425 
L 154.713838 166.010479 
L 157.709091 165.5999 
L 160.704343 165.136447 
L 163.699596 164.624403 
L 166.694848 164.06856 
L 169.690101 163.474197 
L 172.685354 162.847069 
L 175.680606 162.193389 
L 178.675859 161.519806 
L 181.671111 160.833393 
L 184.666364 160.141617 
L 187.661616 159.452308 
L 190.656869 158.773617 
L 193.652121 158.113954 
L 196.647374 157.481907 
L 199.642626 156.886137 
L 202.637879 156.335237 
L 205.633131 155.837568 
L 208.628384 155.40106 
L 211.623636 155.032989 
L 214.618889 154.73974 
L 217.614141 154.526577 
L 220.609394 154.397429 
L 223.604646 154.354712 
L 226.599899 154.398687 
L 229.595152 154.530972 
L 232.590404 154.753894 
L 235.585657 155.071222 
L 238.580909 155.488012 
L 241.576162 156.010387 
L 244.571414 156.645246 
L 247.566667 157.399903 
L 250.561919 158.281667 
L 253.557172 159.297392 
L 256.552424 160.453022 
L 259.547677 161.753176 
L 262.542929 163.200817 
L 265.538182 164.797037 
L 268.533434 166.540989 
L 271.528687 168.429947 
L 274.523939 170.459495 
L 277.519192 172.6238 
L 280.514444 174.915935 
L 283.509697 177.328209 
L 286.504949 179.852478 
L 289.500202 182.480417 
L 292.495455 185.203736 
L 295.490707 188.014346 
L 298.48596 190.904479 
L 301.481212 193.866755 
L 304.476465 196.89423 
L 307.471717 199.980401 
L 310.46697 203.119208 
L 313.462222 206.305007 
L 316.457475 209.532549 
L 319.452727 212.796945 
L 322.44798 216.093628 
L 325.443232 219.418318 
L 328.438485 222.766987 
L 331.433737 226.135825 
L 334.42899 229.521199 
L 337.424242 232.919627 
L 340.419495 236.327746 
L 343.414747 239.742277 
L 346.41 243.159984 
" style="fill:none;stroke:#0000ff;stroke-linecap:square;stroke-width:1.5;"/>
   </g>
   <g id="line2d_28">
    <path clip-path="url(#p9f3e829d7e)" d="M 49.88 80.353628 
L 52.875253 80.548765 
L 55.870505 81.103462 
L 58.865758 81.946824 
L 61.86101 83.004519 
L 64.856263 84.218167 
L 67.851515 85.547285 
L 70.846768 86.964906 
L 73.84202 88.452963 
L 76.837273 89.998919 
L 79.832525 91.593553 
L 82.827778 93.229546 
L 85.82303 94.900547 
L 88.818283 96.600534 
L 91.813535 98.323333 
L 94.808788 100.062227 
L 97.80404 101.809588 
L 100.799293 103.556519 
L 103.794545 105.292453 
L 106.789798 107.00472 
L 109.785051 108.678069 
L 112.780303 110.294155 
L 115.775556 111.831068 
L 118.770808 113.262991 
L 121.766061 114.560202 
L 124.761313 115.689694 
L 127.756566 116.61675 
L 130.751818 117.307713 
L 133.747071 117.733853 
L 136.742323 117.875647 
L 139.737576 117.810527 
L 142.732828 117.616502 
L 145.728081 117.294806 
L 148.723333 116.847484 
L 151.718586 116.277384 
L 154.713838 115.58814 
L 157.709091 114.784164 
L 160.704343 113.870629 
L 163.699596 112.853469 
L 166.694848 111.739375 
L 169.690101 110.535812 
L 172.685354 109.251046 
L 175.680606 107.894194 
L 178.675859 106.475295 
L 181.671111 105.005415 
L 184.666364 103.496776 
L 187.661616 101.962936 
L 190.656869 100.418991 
L 193.652121 98.881824 
L 196.647374 97.370366 
L 199.642626 95.905852 
L 202.637879 94.512005 
L 205.633131 93.215064 
L 208.628384 92.043502 
L 211.623636 91.027266 
L 214.618889 90.196353 
L 217.614141 89.578657 
L 220.609394 89.197248 
L 223.604646 89.070048 
L 226.599899 89.178285 
L 229.595152 89.47425 
L 232.590404 89.941319 
L 235.585657 90.554574 
L 238.580909 91.283584 
L 241.576162 92.095172 
L 244.571414 92.955735 
L 247.566667 93.832957 
L 250.561919 94.696965 
L 253.557172 95.521061 
L 256.552424 96.282155 
L 259.547677 96.960987 
L 262.542929 97.542196 
L 265.538182 98.014242 
L 268.533434 98.369209 
L 271.528687 98.602487 
L 274.523939 98.712367 
L 277.519192 98.699586 
L 280.514444 98.566846 
L 283.509697 98.318352 
L 286.504949 97.959401 
L 289.500202 97.496022 
L 292.495455 96.934693 
L 295.490707 96.282132 
L 298.48596 95.545141 
L 301.481212 94.730531 
L 304.476465 93.845085 
L 307.471717 92.895585 
L 310.46697 91.888893 
L 313.462222 90.832096 
L 316.457475 89.732745 
L 319.452727 88.599214 
L 322.44798 87.441277 
L 325.443232 86.271001 
L 328.438485 85.104206 
L 331.433737 83.962824 
L 334.42899 82.878672 
L 337.424242 81.898972 
L 340.419495 81.092304 
L 343.414747 80.547977 
L 346.41 80.353628 
" style="fill:none;stroke:#0000ff;stroke-linecap:square;stroke-width:1.5;"/>
   </g>
   <g id="line2d_29">
    <path clip-path="url(#p9f3e829d7e)" d="M 49.88 68.483032 
L 52.875253 68.477071 
L 55.870505 68.459252 
L 58.865758 68.429766 
L 61.86101 68.388927 
L 64.856263 68.337173 
L 67.851515 68.275061 
L 70.846768 68.203262 
L 73.84202 68.122556 
L 76.837273 68.033823 
L 79.832525 67.938038 
L 82.827778 67.83626 
L 85.82303 67.729623 
L 88.818283 67.619324 
L 91.813535 67.506609 
L 94.808788 67.392766 
L 97.80404 67.279101 
L 100.799293 67.166934 
L 103.794545 67.057573 
L 106.789798 66.952307 
L 109.785051 66.852381 
L 112.780303 66.758988 
L 115.775556 66.673246 
L 118.770808 66.596184 
L 121.766061 66.528732 
L 124.761313 66.471699 
L 127.756566 66.425767 
L 130.751818 66.391479 
L 133.747071 66.369228 
L 136.742323 66.359269 
L 139.737576 66.445379 
L 142.732828 66.699852 
L 145.728081 67.115111 
L 148.723333 67.679459 
L 151.718586 68.378216 
L 154.713838 69.194911 
L 157.709091 70.112346 
L 160.704343 71.113412 
L 163.699596 72.181625 
L 166.694848 73.301427 
L 169.690101 74.458295 
L 172.685354 75.63872 
L 175.680606 76.830114 
L 178.675859 78.020677 
L 181.671111 79.199251 
L 184.666364 80.355181 
L 187.661616 81.478197 
L 190.656869 82.558323 
L 193.652121 83.585813 
L 196.647374 84.551133 
L 199.642626 85.444979 
L 202.637879 86.258338 
L 205.633131 86.982595 
L 208.628384 87.609682 
L 211.623636 88.132254 
L 214.618889 88.543894 
L 217.614141 88.839318 
L 220.609394 89.01454 
L 223.604646 89.064722 
L 226.599899 89.04018 
L 229.595152 88.955332 
L 232.590404 88.810741 
L 235.585657 88.607296 
L 238.580909 88.346214 
L 241.576162 88.029035 
L 244.571414 87.657607 
L 247.566667 87.234086 
L 250.561919 86.760921 
L 253.557172 86.240844 
L 256.552424 85.676854 
L 259.547677 85.072208 
L 262.542929 84.430398 
L 265.538182 83.75514 
L 268.533434 83.050351 
L 271.528687 82.32013 
L 274.523939 81.568739 
L 277.519192 80.800578 
L 280.514444 80.020161 
L 283.509697 79.232089 
L 286.504949 78.441027 
L 289.500202 77.651672 
L 292.495455 76.868726 
L 295.490707 76.096863 
L 298.48596 75.340702 
L 301.481212 74.604771 
L 304.476465 73.893482 
L 307.471717 73.211096 
L 310.46697 72.561694 
L 313.462222 71.949153 
L 316.457475 71.377118 
L 319.452727 70.848976 
L 322.44798 70.367844 
L 325.443232 69.936543 
L 328.438485 69.557589 
L 331.433737 69.23318 
L 334.42899 68.965186 
L 337.424242 68.755146 
L 340.419495 68.604258 
L 343.414747 68.513382 
L 346.41 68.483032 
" style="fill:none;stroke:#0000ff;stroke-linecap:square;stroke-width:1.5;"/>
   </g>
   <g id="line2d_30">
    <path clip-path="url(#p9f3e829d7e)" d="M 49.88 68.483032 
L 52.875253 68.302175 
L 55.870505 67.790065 
L 58.865758 67.016845 
L 61.86101 66.055598 
L 64.856263 64.962963 
L 67.851515 63.777203 
L 70.846768 62.522585 
L 73.84202 61.214002 
L 76.837273 59.860341 
L 79.832525 58.466676 
L 82.827778 57.035657 
L 85.82303 55.568394 
L 88.818283 54.065028 
L 91.813535 52.525112 
L 94.808788 50.947865 
L 97.80404 49.332365 
L 100.799293 47.677689 
L 103.794545 45.983032 
L 106.789798 44.247822 
L 109.785051 42.471852 
L 112.780303 40.655456 
L 115.775556 38.799791 
L 118.770808 36.90735 
L 121.766061 34.982997 
L 124.761313 33.036365 
L 127.756566 31.088241 
L 130.751818 29.191089 
L 133.747071 27.510378 
L 136.742323 26.621423 
L 139.737576 26.649121 
L 142.732828 26.732016 
L 145.728081 26.870681 
L 148.723333 27.06602 
L 151.718586 27.319225 
L 154.713838 27.631721 
L 157.709091 28.005095 
L 160.704343 28.441003 
L 163.699596 28.941054 
L 166.694848 29.506654 
L 169.690101 30.138826 
L 172.685354 30.83799 
L 175.680606 31.60371 
L 178.675859 32.434417 
L 181.671111 33.327102 
L 184.666364 34.276991 
L 187.661616 35.277214 
L 190.656869 36.318472 
L 193.652121 37.388725 
L 196.647374 38.472899 
L 199.642626 39.552673 
L 202.637879 40.606366 
L 205.633131 41.609033 
L 208.628384 42.532886 
L 211.623636 43.348208 
L 214.618889 44.024932 
L 217.614141 44.534936 
L 220.609394 44.854898 
L 223.604646 44.969045 
L 226.599899 44.847677 
L 229.595152 44.522686 
L 232.590404 44.013153 
L 235.585657 43.347714 
L 238.580909 42.562088 
L 241.576162 41.696661 
L 244.571414 40.794492 
L 247.566667 39.899781 
L 250.561919 39.056567 
L 253.557172 38.307357 
L 256.552424 37.6914 
L 259.547677 37.24256 
L 262.542929 36.987011 
L 265.538182 36.941313 
L 268.533434 37.111486 
L 271.528687 37.493494 
L 274.523939 38.075015 
L 277.519192 38.837995 
L 280.514444 39.761304 
L 283.509697 40.822969 
L 286.504949 42.001754 
L 289.500202 43.278091 
L 292.495455 44.634486 
L 295.490707 46.055589 
L 298.48596 47.528035 
L 301.481212 49.040191 
L 304.476465 50.581846 
L 307.471717 52.143884 
L 310.46697 53.717946 
L 313.462222 55.296074 
L 316.457475 56.870309 
L 319.452727 58.432184 
L 322.44798 59.97206 
L 325.443232 61.478137 
L 328.438485 62.934942 
L 331.433737 64.320918 
L 334.42899 65.604612 
L 337.424242 66.739134 
L 340.419495 67.656181 
L 343.414747 68.266649 
L 346.41 68.483032 
" style="fill:none;stroke:#0000ff;stroke-linecap:square;stroke-width:1.5;"/>
   </g>
   <g id="line2d_31">
    <path clip-path="url(#p9f3e829d7e)" d="M 102.162563 -1 
L 103.794545 0.018744 
L 106.789798 1.990894 
L 109.785051 4.042454 
L 112.780303 6.151868 
L 115.775556 8.299258 
L 118.770808 10.466073 
L 121.766061 12.633969 
L 124.761313 14.782242 
L 127.756566 16.881216 
L 130.751818 18.871518 
L 133.747071 20.582567 
L 136.742323 21.43585 
L 139.737576 21.333739 
L 142.732828 21.031367 
L 145.728081 20.535965 
L 148.723333 19.858665 
L 151.718586 19.013386 
L 154.713838 18.015635 
L 157.709091 16.881441 
L 160.704343 15.626533 
L 163.699596 14.265802 
L 166.694848 12.813006 
L 169.690101 11.280668 
L 172.685354 9.680116 
L 175.680606 8.021605 
L 178.675859 6.314499 
L 181.671111 4.56749 
L 184.666364 2.788841 
L 187.661616 0.986661 
L 190.656869 -0.830773 
L 190.934781 -1 
" style="fill:none;stroke:#0000ff;stroke-linecap:square;stroke-width:1.5;"/>
   </g>
   <g id="line2d_32">
    <path clip-path="url(#p9f3e829d7e)" style="fill:none;stroke:#0000ff;stroke-linecap:square;stroke-width:1.5;"/>
   </g>
   <g id="line2d_33">
    <path clip-path="url(#p9f3e829d7e)" style="fill:none;stroke:#0000ff;stroke-linecap:square;stroke-width:1.5;"/>
   </g>
   <g id="line2d_34">
    <path clip-path="url(#p9f3e829d7e)" style="fill:none;stroke:#0000ff;stroke-linecap:square;stroke-width:1.5;"/>
   </g>
   <g id="line2d_35">
    <path clip-path="url(#p9f3e829d7e)" style="fill:none;stroke:#0000ff;stroke-linecap:square;stroke-width:1.5;"/>
   </g>
   <g id="line2d_36">
    <path clip-path="url(#p9f3e829d7e)" style="fill:none;stroke:#0000ff;stroke-linecap:square;stroke-width:1.5;"/>
   </g>
   <g id="line2d_37">
    <path clip-path="url(#p9f3e829d7e)" style="fill:none;stroke:#0000ff;stroke-linecap:square;stroke-width:1.5;"/>
   </g>
   <g id="line2d_38">
    <path clip-path="url(#p9f3e829d7e)" style="fill:none;stroke:#0000ff;stroke-linecap:square;stroke-width:1.5;"/>
   </g>
   <g id="line2d_39">
    <path clip-path="url(#p9f3e829d7e)" style="fill:none;stroke:#0000ff;stroke-linecap:square;stroke-width:1.5;"/>
   </g>
   <g id="line2d_40">
    <path clip-path="url(#p9f3e829d7e)" style="fill:none;stroke:#0000ff;stroke-linecap:square;stroke-width:1.5;"/>
   </g>
   <g id="line2d_41">
    <path clip-path="url(#p9f3e829d7e)" style="fill:none;stroke:#0000ff;stroke-linecap:square;stroke-width:1.5;"/>
   </g>
   <g id="line2d_42">
    <path clip-path="url(#p9f3e829d7e)" style="fill:none;stroke:#0000ff;stroke-linecap:square;stroke-width:1.5;"/>
   </g>
   <g id="line2d_43">
    <path clip-path="url(#p9f3e829d7e)" style="fill:none;stroke:#0000ff;stroke-linecap:square;stroke-width:1.5;"/>
   </g>
   <g id="line2d_44">
    <path clip-path="url(#p9f3e829d7e)" style="fill:none;stroke:#0000ff;stroke-linecap:square;stroke-width:1.5;"/>
   </g>
   <g id="line2d_45">
    <path clip-path="url(#p9f3e829d7e)" style="fill:none;stroke:#0000ff;stroke-linecap:square;stroke-width:1.5;"/>
   </g>
   <g id="line2d_46">
    <path clip-path="url(#p9f3e829d7e)" style="fill:none;stroke:#0000ff;stroke-linecap:square;stroke-width:1.5;"/>
   </g>
   <g id="line2d_47">
    <path clip-path="url(#p9f3e829d7e)" style="fill:none;stroke:#0000ff;stroke-linecap:square;stroke-width:1.5;"/>
   </g>
   <g id="line2d_48">
    <path clip-path="url(#p9f3e829d7e)" style="fill:none;stroke:#0000ff;stroke-linecap:square;stroke-width:1.5;"/>
   </g>
   <g id="line2d_49">
    <path clip-path="url(#p9f3e829d7e)" style="fill:none;stroke:#0000ff;stroke-linecap:square;stroke-width:1.5;"/>
   </g>
   <g id="line2d_50">
    <path clip-path="url(#p9f3e829d7e)" style="fill:none;stroke:#0000ff;stroke-linecap:square;stroke-width:1.5;"/>
   </g>
   <g id="line2d_51">
    <path clip-path="url(#p9f3e829d7e)" style="fill:none;stroke:#0000ff;stroke-linecap:square;stroke-width:1.5;"/>
   </g>
   <g id="line2d_52">
    <path clip-path="url(#p9f3e829d7e)" style="fill:none;stroke:#0000ff;stroke-linecap:square;stroke-width:1.5;"/>
   </g>
   <g id="line2d_53">
    <path clip-path="url(#p9f3e829d7e)" style="fill:none;stroke:#0000ff;stroke-linecap:square;stroke-width:1.5;"/>
   </g>
   <g id="line2d_54">
    <path clip-path="url(#p9f3e829d7e)" style="fill:none;stroke:#0000ff;stroke-linecap:square;stroke-width:1.5;"/>
   </g>
   <g id="line2d_55">
    <path clip-path="url(#p9f3e829d7e)" style="fill:none;stroke:#0000ff;stroke-linecap:square;stroke-width:1.5;"/>
   </g>
   <g id="line2d_56">
    <path clip-path="url(#p9f3e829d7e)" style="fill:none;stroke:#0000ff;stroke-linecap:square;stroke-width:1.5;"/>
   </g>
   <g id="line2d_57">
    <path clip-path="url(#p9f3e829d7e)" style="fill:none;stroke:#0000ff;stroke-linecap:square;stroke-width:1.5;"/>
   </g>
   <g id="line2d_58">
    <path clip-path="url(#p9f3e829d7e)" style="fill:none;stroke:#0000ff;stroke-linecap:square;stroke-width:1.5;"/>
   </g>
   <g id="line2d_59">
    <path clip-path="url(#p9f3e829d7e)" style="fill:none;stroke:#0000ff;stroke-linecap:square;stroke-width:1.5;"/>
   </g>
   <g id="line2d_60">
    <path clip-path="url(#p9f3e829d7e)" style="fill:none;stroke:#0000ff;stroke-linecap:square;stroke-width:1.5;"/>
   </g>
   <g id="line2d_61">
    <path clip-path="url(#p9f3e829d7e)" style="fill:none;stroke:#0000ff;stroke-linecap:square;stroke-width:1.5;"/>
   </g>
   <g id="line2d_62">
    <path clip-path="url(#p9f3e829d7e)" style="fill:none;stroke:#0000ff;stroke-linecap:square;stroke-width:1.5;"/>
   </g>
   <g id="line2d_63">
    <path clip-path="url(#p9f3e829d7e)" style="fill:none;stroke:#0000ff;stroke-linecap:square;stroke-width:1.5;"/>
   </g>
   <g id="line2d_64">
    <path clip-path="url(#p9f3e829d7e)" style="fill:none;stroke:#0000ff;stroke-linecap:square;stroke-width:1.5;"/>
   </g>
   <g id="line2d_65">
    <path clip-path="url(#p9f3e829d7e)" style="fill:none;stroke:#0000ff;stroke-linecap:square;stroke-width:1.5;"/>
   </g>
   <g id="line2d_66">
    <path clip-path="url(#p9f3e829d7e)" style="fill:none;stroke:#0000ff;stroke-linecap:square;stroke-width:1.5;"/>
   </g>
   <g id="line2d_67">
    <path clip-path="url(#p9f3e829d7e)" style="fill:none;stroke:#0000ff;stroke-linecap:square;stroke-width:1.5;"/>
   </g>
   <g id="line2d_68">
    <path clip-path="url(#p9f3e829d7e)" style="fill:none;stroke:#0000ff;stroke-linecap:square;stroke-width:1.5;"/>
   </g>
   <g id="line2d_69">
    <path clip-path="url(#p9f3e829d7e)" style="fill:none;stroke:#0000ff;stroke-linecap:square;stroke-width:1.5;"/>
   </g>
   <g id="line2d_70">
    <path clip-path="url(#p9f3e829d7e)" style="fill:none;stroke:#0000ff;stroke-linecap:square;stroke-width:1.5;"/>
   </g>
   <g id="line2d_71">
    <path clip-path="url(#p9f3e829d7e)" style="fill:none;stroke:#0000ff;stroke-linecap:square;stroke-width:1.5;"/>
   </g>
   <g id="line2d_72">
    <path clip-path="url(#p9f3e829d7e)" style="fill:none;stroke:#0000ff;stroke-linecap:square;stroke-width:1.5;"/>
   </g>
   <g id="line2d_73">
    <path clip-path="url(#p9f3e829d7e)" style="fill:none;stroke:#0000ff;stroke-linecap:square;stroke-width:1.5;"/>
   </g>
   <g id="line2d_74">
    <path clip-path="url(#p9f3e829d7e)" style="fill:none;stroke:#0000ff;stroke-linecap:square;stroke-width:1.5;"/>
   </g>
   <g id="line2d_75">
    <path clip-path="url(#p9f3e829d7e)" style="fill:none;stroke:#0000ff;stroke-linecap:square;stroke-width:1.5;"/>
   </g>
   <g id="line2d_76">
    <path clip-path="url(#p9f3e829d7e)" d="M 49.88 243.159995 
L 52.875253 238.82001 
L 55.870505 234.480956 
L 58.865758 230.143784 
L 61.86101 225.809453 
L 64.856263 221.478952 
L 67.851515 217.153303 
L 70.846768 212.833575 
L 73.84202 208.520896 
L 76.837273 204.216467 
L 79.832525 199.921582 
L 82.827778 195.637647 
L 85.82303 191.366209 
L 88.818283 187.10899 
L 91.813535 182.867935 
L 94.808788 178.645275 
L 97.80404 174.443609 
L 100.799293 170.266034 
L 103.794545 166.116321 
L 106.789798 161.999195 
L 109.785051 157.920772 
L 112.780303 153.889284 
L 115.775556 149.916339 
L 118.770808 146.019232 
L 121.766061 142.225475 
L 124.761313 138.582283 
L 127.756566 135.177786 
L 130.751818 132.189762 
L 133.747071 129.981505 
L 136.742323 129.141683 
L 139.737576 129.046154 
L 142.732828 128.761447 
L 145.728081 128.289127 
L 148.723333 127.631758 
L 151.718586 126.792852 
L 154.713838 125.776798 
L 157.709091 124.588776 
L 160.704343 123.234673 
L 163.699596 121.720987 
L 166.694848 120.054741 
L 169.690101 118.243408 
L 172.685354 116.294851 
L 175.680606 114.217285 
L 178.675859 112.019274 
L 181.671111 109.709768 
L 184.666364 107.298207 
L 187.661616 104.794755 
L 190.656869 102.210971 
L 193.652121 99.572205 
L 196.647374 98.037203 
L 199.642626 96.767504 
L 202.637879 95.491798 
L 205.633131 94.223779 
L 208.628384 92.984615 
L 211.623636 91.805969 
L 214.618889 90.736187 
L 217.614141 89.848085 
L 220.609394 89.241002 
L 223.604646 89.017712 
L 226.599899 89.258496 
L 229.595152 89.972095 
L 232.590404 91.233223 
L 235.585657 93.091914 
L 238.580909 95.510105 
L 241.576162 98.379425 
L 244.571414 101.581355 
L 247.566667 105.021411 
L 250.561919 108.633158 
L 253.557172 112.371592 
L 256.552424 116.206144 
L 259.547677 120.115649 
L 262.542929 124.085079 
L 265.538182 128.103482 
L 268.533434 132.16267 
L 271.528687 136.256374 
L 274.523939 140.379688 
L 277.519192 144.528694 
L 280.514444 148.700205 
L 283.509697 152.891584 
L 286.504949 157.100616 
L 289.500202 161.325415 
L 292.495455 165.564351 
L 295.490707 169.816003 
L 298.48596 174.079112 
L 301.481212 178.35256 
L 304.476465 182.635337 
L 307.471717 186.926527 
L 310.46697 191.22529 
L 313.462222 195.530852 
L 316.457475 199.842494 
L 319.452727 204.159541 
L 322.44798 208.481358 
L 325.443232 212.807342 
L 328.438485 217.136919 
L 331.433737 221.469536 
L 334.42899 225.804659 
L 337.424242 230.141769 
L 340.419495 234.480361 
L 343.414747 238.819936 
L 346.41 243.159995 
" style="fill:none;stroke:#ff0000;stroke-linecap:square;stroke-width:1.5;"/>
   </g>
   <g id="line2d_77">
    <path clip-path="url(#p9f3e829d7e)" d="M 49.88 68.449845 
L 52.875253 68.475517 
L 55.870505 68.553355 
L 58.865758 68.685852 
L 61.86101 68.877235 
L 64.856263 69.133568 
L 67.851515 69.462878 
L 70.846768 69.875291 
L 73.84202 70.383113 
L 76.837273 71.000835 
L 79.832525 71.744937 
L 82.827778 72.633414 
L 85.82303 73.684918 
L 88.818283 74.917461 
L 91.813535 76.346762 
L 94.808788 77.984456 
L 97.80404 79.836545 
L 100.799293 81.902457 
L 103.794545 84.174938 
L 106.789798 86.64069 
L 109.785051 89.2814 
L 112.780303 92.074642 
L 115.775556 94.994083 
L 118.770808 98.008298 
L 121.766061 101.077 
L 124.761313 104.141981 
L 127.756566 107.106113 
L 130.751818 109.784668 
L 133.747071 111.809444 
L 136.742323 112.588855 
L 139.737576 112.547407 
L 142.732828 112.423801 
L 145.728081 112.218483 
L 148.723333 111.932197 
L 151.718586 111.565973 
L 154.713838 111.12113 
L 157.709091 110.599261 
L 160.704343 110.002233 
L 163.699596 109.332179 
L 166.694848 108.591489 
L 169.690101 107.782813 
L 172.685354 106.909057 
L 175.680606 105.973393 
L 178.675859 104.979271 
L 181.671111 103.93045 
L 184.666364 102.831024 
L 187.661616 101.685443 
L 190.656869 100.498249 
L 193.652121 99.262328 
L 196.647374 96.840364 
L 199.642626 94.097136 
L 202.637879 91.337978 
L 205.633131 88.59567 
L 208.628384 85.916115 
L 211.623636 83.369216 
L 214.618889 81.065054 
L 217.614141 79.174511 
L 220.609394 77.934468 
L 223.604646 77.634544 
L 226.599899 77.758121 
L 229.595152 78.404266 
L 232.590404 79.265135 
L 235.585657 80.046974 
L 238.580909 80.606457 
L 241.576162 80.933403 
L 244.571414 81.071475 
L 247.566667 81.067598 
L 250.561919 80.957365 
L 253.557172 80.765327 
L 256.552424 80.50823 
L 259.547677 80.197783 
L 262.542929 79.842534 
L 265.538182 79.449042 
L 268.533434 79.022622 
L 271.528687 78.567798 
L 274.523939 78.088601 
L 277.519192 77.588762 
L 280.514444 77.071833 
L 283.509697 76.541275 
L 286.504949 76.000512 
L 289.500202 75.452973 
L 292.495455 74.902116 
L 295.490707 74.351439 
L 298.48596 73.804497 
L 301.481212 73.264894 
L 304.476465 72.736284 
L 307.471717 72.22236 
L 310.46697 71.726834 
L 313.462222 71.253419 
L 316.457475 70.805797 
L 319.452727 70.387582 
L 322.44798 70.002285 
L 325.443232 69.653258 
L 328.438485 69.343647 
L 331.433737 69.076335 
L 334.42899 68.853886 
L 337.424242 68.678488 
L 340.419495 68.551904 
L 343.414747 68.475426 
L 346.41 68.449845 
" style="fill:none;stroke:#ff0000;stroke-linecap:square;stroke-width:1.5;"/>
   </g>
   <g id="line2d_78">
    <path clip-path="url(#p9f3e829d7e)" d="M 49.88 14.621071 
L 52.875253 14.866981 
L 55.870505 15.58113 
L 58.865758 16.70224 
L 61.86101 18.151743 
L 64.856263 19.851404 
L 67.851515 21.732094 
L 70.846768 23.735517 
L 73.84202 25.812568 
L 76.837273 27.920876 
L 79.832525 30.022683 
L 82.827778 32.083486 
L 85.82303 34.071544 
L 88.818283 35.958172 
L 91.813535 37.718681 
L 94.808788 39.333624 
L 97.80404 40.789925 
L 100.799293 42.081447 
L 103.794545 43.208742 
L 106.789798 44.178004 
L 109.785051 44.999505 
L 112.780303 45.685884 
L 115.775556 46.25062 
L 118.770808 46.706858 
L 121.766061 47.066606 
L 124.761313 47.340268 
L 127.756566 47.536413 
L 130.751818 47.661684 
L 133.747071 47.720798 
L 136.742323 47.716703 
L 139.737576 47.787988 
L 142.732828 47.999612 
L 145.728081 48.348025 
L 148.723333 48.827646 
L 151.718586 49.431282 
L 154.713838 50.150606 
L 157.709091 50.976628 
L 160.704343 51.900097 
L 163.699596 52.911825 
L 166.694848 54.002898 
L 169.690101 55.164812 
L 172.685354 56.389523 
L 175.680606 57.669447 
L 178.675859 58.997404 
L 181.671111 60.366537 
L 184.666364 61.77019 
L 187.661616 63.201753 
L 190.656869 64.654463 
L 193.652121 66.121128 
L 196.647374 67.593745 
L 199.642626 69.062921 
L 202.637879 70.516971 
L 205.633131 71.940457 
L 208.628384 73.311746 
L 211.623636 74.598977 
L 214.618889 75.753753 
L 217.614141 76.703411 
L 220.609394 77.349179 
L 223.604646 77.53472 
L 226.599899 77.462511 
L 229.595152 77.271454 
L 232.590404 76.962049 
L 235.585657 76.535119 
L 238.580909 75.991806 
L 241.576162 75.33356 
L 244.571414 74.562127 
L 247.566667 73.679536 
L 250.561919 72.688087 
L 253.557172 71.590333 
L 256.552424 70.389065 
L 259.547677 69.087299 
L 262.542929 67.688261 
L 265.538182 66.195375 
L 268.533434 64.612251 
L 271.528687 62.942678 
L 274.523939 61.190621 
L 277.519192 59.360219 
L 280.514444 57.455794 
L 283.509697 55.481857 
L 286.504949 53.443136 
L 289.500202 51.344595 
L 292.495455 49.191487 
L 295.490707 46.989403 
L 298.48596 44.744355 
L 301.481212 42.462884 
L 304.476465 40.152198 
L 307.471717 37.820373 
L 310.46697 35.476613 
L 313.462222 33.131622 
L 316.457475 30.79811 
L 319.452727 28.491507 
L 322.44798 26.230959 
L 325.443232 24.040713 
L 328.438485 21.951993 
L 331.433737 20.005371 
L 334.42899 18.253338 
L 337.424242 16.76194 
L 340.419495 15.608886 
L 343.414747 14.874158 
L 346.41 14.621071 
" style="fill:none;stroke:#ff0000;stroke-linecap:square;stroke-width:1.5;"/>
   </g>
   <g id="line2d_79">
    <path clip-path="url(#p9f3e829d7e)" d="M 49.88 14.621071 
L 52.875253 14.598768 
L 55.870505 14.532005 
L 58.865758 14.421218 
L 61.86101 14.267142 
L 64.856263 14.070809 
L 67.851515 13.833562 
L 70.846768 13.557064 
L 73.84202 13.243308 
L 76.837273 12.894634 
L 79.832525 12.513745 
L 82.827778 12.103727 
L 85.82303 11.668071 
L 88.818283 11.210687 
L 91.813535 10.735932 
L 94.808788 10.248623 
L 97.80404 9.754052 
L 100.799293 9.257984 
L 103.794545 8.766655 
L 106.789798 8.286733 
L 109.785051 7.82527 
L 112.780303 7.389605 
L 115.775556 6.987241 
L 118.770808 6.625669 
L 121.766061 6.312144 
L 124.761313 6.053433 
L 127.756566 5.855523 
L 130.751818 5.723335 
L 133.747071 5.660461 
L 136.742323 5.668786 
L 139.737576 5.609196 
L 142.732828 5.432456 
L 145.728081 5.142003 
L 148.723333 4.743256 
L 151.718586 4.243221 
L 154.713838 3.650087 
L 157.709091 2.972927 
L 160.704343 2.221792 
L 163.699596 1.409327 
L 166.694848 0.563269 
L 169.690101 0.119406 
L 172.685354 3.00453 
L 175.680606 6.459586 
L 178.675859 9.979709 
L 181.671111 13.531593 
L 184.666364 17.099536 
L 187.661616 20.671165 
L 190.656869 24.234825 
L 193.652121 27.778374 
L 196.647374 31.288098 
L 199.642626 34.747311 
L 202.637879 38.134255 
L 205.633131 41.418664 
L 208.628384 44.555946 
L 211.623636 47.477236 
L 214.618889 50.073264 
L 217.614141 52.173626 
L 220.609394 53.54134 
L 223.604646 53.940449 
L 226.599899 53.581036 
L 229.595152 52.240541 
L 232.590404 50.152322 
L 235.585657 47.560725 
L 238.580909 44.64821 
L 241.576162 41.534917 
L 244.571414 38.297927 
L 247.566667 34.987849 
L 250.561919 31.639725 
L 253.557172 28.279898 
L 256.552424 24.930728 
L 259.547677 21.614611 
L 262.542929 18.358743 
L 265.538182 15.202792 
L 268.533434 12.213412 
L 271.528687 9.511453 
L 274.523939 7.305418 
L 277.519192 5.849886 
L 280.514444 5.22099 
L 283.509697 5.211637 
L 286.504949 5.55956 
L 289.500202 6.093444 
L 292.495455 6.720528 
L 295.490707 7.390881 
L 298.48596 8.076095 
L 301.481212 8.758797 
L 304.476465 9.42754 
L 307.471717 10.074215 
L 310.46697 10.69268 
L 313.462222 11.278003 
L 316.457475 11.826031 
L 319.452727 12.333139 
L 322.44798 12.796092 
L 325.443232 13.211967 
L 328.438485 13.578126 
L 331.433737 13.892212 
L 334.42899 14.152161 
L 337.424242 14.356228 
L 340.419495 14.503016 
L 343.414747 14.591505 
L 346.41 14.621071 
" style="fill:none;stroke:#ff0000;stroke-linecap:square;stroke-width:1.5;"/>
   </g>
   <g id="line2d_80">
    <path clip-path="url(#p9f3e829d7e)" style="fill:none;stroke:#ff0000;stroke-linecap:square;stroke-width:1.5;"/>
   </g>
   <g id="line2d_81">
    <path clip-path="url(#p9f3e829d7e)" style="fill:none;stroke:#ff0000;stroke-linecap:square;stroke-width:1.5;"/>
   </g>
   <g id="line2d_82">
    <path clip-path="url(#p9f3e829d7e)" style="fill:none;stroke:#ff0000;stroke-linecap:square;stroke-width:1.5;"/>
   </g>
   <g id="line2d_83">
    <path clip-path="url(#p9f3e829d7e)" style="fill:none;stroke:#ff0000;stroke-linecap:square;stroke-width:1.5;"/>
   </g>
   <g id="line2d_84">
    <path clip-path="url(#p9f3e829d7e)" style="fill:none;stroke:#ff0000;stroke-linecap:square;stroke-width:1.5;"/>
   </g>
   <g id="line2d_85">
    <path clip-path="url(#p9f3e829d7e)" style="fill:none;stroke:#ff0000;stroke-linecap:square;stroke-width:1.5;"/>
   </g>
   <g id="line2d_86">
    <path clip-path="url(#p9f3e829d7e)" style="fill:none;stroke:#ff0000;stroke-linecap:square;stroke-width:1.5;"/>
   </g>
   <g id="line2d_87">
    <path clip-path="url(#p9f3e829d7e)" style="fill:none;stroke:#ff0000;stroke-linecap:square;stroke-width:1.5;"/>
   </g>
   <g id="line2d_88">
    <path clip-path="url(#p9f3e829d7e)" style="fill:none;stroke:#ff0000;stroke-linecap:square;stroke-width:1.5;"/>
   </g>
   <g id="line2d_89">
    <path clip-path="url(#p9f3e829d7e)" style="fill:none;stroke:#ff0000;stroke-linecap:square;stroke-width:1.5;"/>
   </g>
   <g id="line2d_90">
    <path clip-path="url(#p9f3e829d7e)" style="fill:none;stroke:#ff0000;stroke-linecap:square;stroke-width:1.5;"/>
   </g>
   <g id="line2d_91">
    <path clip-path="url(#p9f3e829d7e)" style="fill:none;stroke:#ff0000;stroke-linecap:square;stroke-width:1.5;"/>
   </g>
   <g id="line2d_92">
    <path clip-path="url(#p9f3e829d7e)" style="fill:none;stroke:#ff0000;stroke-linecap:square;stroke-width:1.5;"/>
   </g>
   <g id="line2d_93">
    <path clip-path="url(#p9f3e829d7e)" style="fill:none;stroke:#ff0000;stroke-linecap:square;stroke-width:1.5;"/>
   </g>
   <g id="line2d_94">
    <path clip-path="url(#p9f3e829d7e)" style="fill:none;stroke:#ff0000;stroke-linecap:square;stroke-width:1.5;"/>
   </g>
   <g id="line2d_95">
    <path clip-path="url(#p9f3e829d7e)" style="fill:none;stroke:#ff0000;stroke-linecap:square;stroke-width:1.5;"/>
   </g>
   <g id="line2d_96">
    <path clip-path="url(#p9f3e829d7e)" style="fill:none;stroke:#ff0000;stroke-linecap:square;stroke-width:1.5;"/>
   </g>
   <g id="line2d_97">
    <path clip-path="url(#p9f3e829d7e)" style="fill:none;stroke:#ff0000;stroke-linecap:square;stroke-width:1.5;"/>
   </g>
   <g id="line2d_98">
    <path clip-path="url(#p9f3e829d7e)" style="fill:none;stroke:#ff0000;stroke-linecap:square;stroke-width:1.5;"/>
   </g>
   <g id="line2d_99">
    <path clip-path="url(#p9f3e829d7e)" style="fill:none;stroke:#ff0000;stroke-linecap:square;stroke-width:1.5;"/>
   </g>
   <g id="line2d_100">
    <path clip-path="url(#p9f3e829d7e)" style="fill:none;stroke:#ff0000;stroke-linecap:square;stroke-width:1.5;"/>
   </g>
   <g id="line2d_101">
    <path clip-path="url(#p9f3e829d7e)" style="fill:none;stroke:#ff0000;stroke-linecap:square;stroke-width:1.5;"/>
   </g>
   <g id="line2d_102">
    <path clip-path="url(#p9f3e829d7e)" style="fill:none;stroke:#ff0000;stroke-linecap:square;stroke-width:1.5;"/>
   </g>
   <g id="line2d_103">
    <path clip-path="url(#p9f3e829d7e)" style="fill:none;stroke:#ff0000;stroke-linecap:square;stroke-width:1.5;"/>
   </g>
   <g id="line2d_104">
    <path clip-path="url(#p9f3e829d7e)" style="fill:none;stroke:#ff0000;stroke-linecap:square;stroke-width:1.5;"/>
   </g>
   <g id="line2d_105">
    <path clip-path="url(#p9f3e829d7e)" style="fill:none;stroke:#ff0000;stroke-linecap:square;stroke-width:1.5;"/>
   </g>
   <g id="line2d_106">
    <path clip-path="url(#p9f3e829d7e)" style="fill:none;stroke:#ff0000;stroke-linecap:square;stroke-width:1.5;"/>
   </g>
   <g id="line2d_107">
    <path clip-path="url(#p9f3e829d7e)" style="fill:none;stroke:#ff0000;stroke-linecap:square;stroke-width:1.5;"/>
   </g>
   <g id="line2d_108">
    <path clip-path="url(#p9f3e829d7e)" style="fill:none;stroke:#ff0000;stroke-linecap:square;stroke-width:1.5;"/>
   </g>
   <g id="line2d_109">
    <path clip-path="url(#p9f3e829d7e)" style="fill:none;stroke:#ff0000;stroke-linecap:square;stroke-width:1.5;"/>
   </g>
   <g id="line2d_110">
    <path clip-path="url(#p9f3e829d7e)" style="fill:none;stroke:#ff0000;stroke-linecap:square;stroke-width:1.5;"/>
   </g>
   <g id="line2d_111">
    <path clip-path="url(#p9f3e829d7e)" style="fill:none;stroke:#ff0000;stroke-linecap:square;stroke-width:1.5;"/>
   </g>
   <g id="line2d_112">
    <path clip-path="url(#p9f3e829d7e)" style="fill:none;stroke:#ff0000;stroke-linecap:square;stroke-width:1.5;"/>
   </g>
   <g id="line2d_113">
    <path clip-path="url(#p9f3e829d7e)" style="fill:none;stroke:#ff0000;stroke-linecap:square;stroke-width:1.5;"/>
   </g>
   <g id="line2d_114">
    <path clip-path="url(#p9f3e829d7e)" style="fill:none;stroke:#ff0000;stroke-linecap:square;stroke-width:1.5;"/>
   </g>
   <g id="line2d_115">
    <path clip-path="url(#p9f3e829d7e)" style="fill:none;stroke:#ff0000;stroke-linecap:square;stroke-width:1.5;"/>
   </g>
   <g id="line2d_116">
    <path clip-path="url(#p9f3e829d7e)" style="fill:none;stroke:#ff0000;stroke-linecap:square;stroke-width:1.5;"/>
   </g>
   <g id="line2d_117">
    <path clip-path="url(#p9f3e829d7e)" style="fill:none;stroke:#ff0000;stroke-linecap:square;stroke-width:1.5;"/>
   </g>
   <g id="line2d_118">
    <path clip-path="url(#p9f3e829d7e)" style="fill:none;stroke:#ff0000;stroke-linecap:square;stroke-width:1.5;"/>
   </g>
   <g id="line2d_119">
    <path clip-path="url(#p9f3e829d7e)" style="fill:none;stroke:#ff0000;stroke-linecap:square;stroke-width:1.5;"/>
   </g>
   <g id="line2d_120">
    <path clip-path="url(#p9f3e829d7e)" style="fill:none;stroke:#ff0000;stroke-linecap:square;stroke-width:1.5;"/>
   </g>
   <g id="line2d_121">
    <path clip-path="url(#p9f3e829d7e)" style="fill:none;stroke:#ff0000;stroke-linecap:square;stroke-width:1.5;"/>
   </g>
   <g id="line2d_122">
    <path clip-path="url(#p9f3e829d7e)" style="fill:none;stroke:#ff0000;stroke-linecap:square;stroke-width:1.5;"/>
   </g>
   <g id="line2d_123">
    <path clip-path="url(#p9f3e829d7e)" style="fill:none;stroke:#ff0000;stroke-linecap:square;stroke-width:1.5;"/>
   </g>
   <g id="line2d_124">
    <path clip-path="url(#p9f3e829d7e)" style="fill:none;stroke:#ff0000;stroke-linecap:square;stroke-width:1.5;"/>
   </g>
   <g id="patch_3">
    <path d="M 49.88 243.16 
L 49.88 14.76 
" style="fill:none;stroke:#000000;stroke-linecap:square;stroke-linejoin:miter;stroke-width:0.8;"/>
   </g>
   <g id="patch_4">
    <path d="M 346.41 243.16 
L 346.41 14.76 
" style="fill:none;stroke:#000000;stroke-linecap:square;stroke-linejoin:miter;stroke-width:0.8;"/>
   </g>
   <g id="patch_5">
    <path d="M 49.88 243.16 
L 346.41 243.16 
" style="fill:none;stroke:#000000;stroke-linecap:square;stroke-linejoin:miter;stroke-width:0.8;"/>
   </g>
   <g id="patch_6">
    <path d="M 49.88 14.76 
L 346.41 14.76 
" style="fill:none;stroke:#000000;stroke-linecap:square;stroke-linejoin:miter;stroke-width:0.8;"/>
   </g>
   <g id="legend_1">
    <g id="patch_7">
     <path d="M 292.674062 145.138125 
L 339.41 145.138125 
Q 341.41 145.138125 341.41 143.138125 
L 341.41 114.781875 
Q 341.41 112.781875 339.41 112.781875 
L 292.674062 112.781875 
Q 290.674062 112.781875 290.674062 114.781875 
L 290.674062 143.138125 
Q 290.674062 145.138125 292.674062 145.138125 
z
" style="fill:#ffffff;opacity:0.8;stroke:#cccccc;stroke-linejoin:miter;"/>
    </g>
    <g id="line2d_125">
     <path d="M 294.674062 120.880313 
L 314.674062 120.880313 
" style="fill:none;stroke:#ff0000;stroke-linecap:square;stroke-width:1.5;"/>
    </g>
    <g id="line2d_126"/>
    <g id="text_16">
     <!-- TE -->
     <g transform="translate(322.674062 124.380313)scale(0.1 -0.1)">
      <defs>
       <path d="M -0.296875 72.90625 
L 61.375 72.90625 
L 61.375 64.59375 
L 35.5 64.59375 
L 35.5 0 
L 25.59375 0 
L 25.59375 64.59375 
L -0.296875 64.59375 
z
" id="DejaVuSans-84"/>
       <path d="M 9.8125 72.90625 
L 55.90625 72.90625 
L 55.90625 64.59375 
L 19.671875 64.59375 
L 19.671875 43.015625 
L 54.390625 43.015625 
L 54.390625 34.71875 
L 19.671875 34.71875 
L 19.671875 8.296875 
L 56.78125 8.296875 
L 56.78125 0 
L 9.8125 0 
z
" id="DejaVuSans-69"/>
      </defs>
      <use xlink:href="#DejaVuSans-84"/>
      <use x="61.083984" xlink:href="#DejaVuSans-69"/>
     </g>
    </g>
    <g id="line2d_127">
     <path d="M 294.674062 135.558437 
L 314.674062 135.558437 
" style="fill:none;stroke:#0000ff;stroke-linecap:square;stroke-width:1.5;"/>
    </g>
    <g id="line2d_128"/>
    <g id="text_17">
     <!-- TM -->
     <g transform="translate(322.674062 139.058437)scale(0.1 -0.1)">
      <use xlink:href="#DejaVuSans-84"/>
      <use x="61.083984" xlink:href="#DejaVuSans-77"/>
     </g>
    </g>
   </g>
  </g>
 </g>
 <defs>
  <clipPath id="p9f3e829d7e">
   <rect height="228.4" width="296.53" x="49.88" y="14.76"/>
  </clipPath>
 </defs>
</svg>
